SplineFontDB: 3.0
FontName: Pontano-Regular
FamilyName: Pontano
Copyright: Digitized data Copyright (c) 2011-2013, vernon adams.
ItalicAngle: 0
UnderlinePosition: 0
UnderlineWidth: 0
Ascent: 1638
Descent: 410
UFOAscent: 1474
UFODescent: -410
LayerCount: 2
Layer: 0 0 "Back"  1
Layer: 1 0 "Fore"  0
FSType: 0
OS2Version: 0
OS2_WeightWidthSlopeOnly: 0
OS2_UseTypoMetrics: 1
CreationTime: 1388466945
ModificationTime: 1388468385
PfmFamily: 17
TTFWeight: 400
TTFWidth: 5
LineGap: 0
VLineGap: 0
OS2TypoAscent: 2120
OS2TypoAOffset: 0
OS2TypoDescent: -703
OS2TypoDOffset: 0
OS2TypoLinegap: 0
OS2WinAscent: 2120
OS2WinAOffset: 0
OS2WinDescent: 703
OS2WinDOffset: 0
HheadAscent: 2120
HheadAOffset: 0
HheadDescent: -703
HheadDOffset: 0
OS2Vendor: 'NeWT'
Lookup: 258 0 0 "'kern' Horizontal Kerning in Latin lookup 0"  {"'kern' Horizontal Kerning in Latin lookup 0 subtable" [307,30,0] } ['kern' ('latn' <'dflt' > ) ]
MarkAttachClasses: 1
DEI: 91125
LangName: 1033 "" "" "" "" "" "Version 2.0" "" "Pontano is a trademark of Vernon Adams and may be registered in certain jurisdictions." "newtypography" "Vernon Adams" "" "newtypography.co.uk" "newtypography.co.uk" "Copyright (c) 2013.+AAoACgAA-This Font Software is licensed under the SIL Open Font License, Version 1.1.+AAoA-This license is copied below, and is also available with a FAQ at:+AAoA-http://scripts.sil.org/OFL+AAoA" "http://scripts.sil.org/OFL" "" "" "" "Pontano-Light" 
PickledData: "(dp1
S'com.typemytype.robofont.foreground.layerStrokeColor'
p2
(S'0.5'
S'0'
S'0.5'
S'0.7'
tp3
sS'com.typemytype.robofont.guides'
p4
((dp5
S'angle'
p6
S'0'
sS'name'
p7
NsS'magnetic'
p8
S'5'
sS'isGlobal'
p9
S'1'
sS'y'
S'1474'
p10
sS'x'
S'124'
p11
s(dp12
g6
S'0'
sg7
Nsg8
S'5'
sg9
S'1'
sS'y'
S'-24'
p13
sS'x'
S'516'
p14
s(dp15
g6
S'0'
sg7
Nsg8
S'5'
sg9
S'1'
sS'y'
S'78'
p16
sS'x'
S'311'
p17
s(dp18
g6
S'0'
sg7
Nsg8
S'5'
sg9
S'1'
sS'y'
S'942'
p19
sS'x'
S'298'
p20
s(dp21
g6
S'0'
sg7
Nsg8
S'5'
sg9
S'1'
sS'y'
S'1044'
p22
sS'x'
S'284'
p23
stp24

StartChar: A
Encoding: 37 65 0
Width: 1263
VWidth: 0
Flags: HW
PickledData: "(dp1
S'com.typemytype.robofont.layerData'
p2
(dp3
s."
AnchorPoint: "ogonek" 1134 0 basechar 0
LayerCount: 2
Fore
SplineSet
29 0 m 257
 204 0 l 257
 327 391 l 257
 923 391 l 257
 1052 0 l 257
 1234 0 l 257
 757 1464 l 257
 501 1464 l 257
 29 0 l 257
367 521 m 257
 626 1349 l 257
 882 521 l 257
 367 521 l 257
EndSplineSet
EndChar

StartChar: AE
Encoding: 137 198 1
Width: 2030
VWidth: 0
Flags: HW
PickledData: "(dp1
S'b'
(dp2
sS'anchors'
p3
(tsS'lib'
p4
(dp5
sS'unicodes'
p6
(tsS'width'
p7
S'2030'
p8
sS'contours'
p9
(tsS'components'
p10
(tsS'com.typemytype.robofont.layerData'
p11
(dp12
sS'name'
p13
S'AE'
p14
s."
LayerCount: 2
Fore
SplineSet
-40 0 m 257
 152 0 l 257
 387 387 l 257
 974 387 l 257
 974 0 l 257
 2015 0 l 257
 2015 134 l 257
 1148 134 l 257
 1148 712 l 257
 1842 712 l 257
 1843 850 l 257
 1148 850 l 257
 1148 1330 l 257
 2005 1330 l 257
 2005 1464 l 257
 849 1464 l 257
 -40 0 l 257
459 518 m 257
 974 1395 l 257
 974 518 l 257
 459 518 l 257
EndSplineSet
EndChar

StartChar: B
Encoding: 38 66 13
Width: 1314
VWidth: 0
Flags: HW
PickledData: "(dp1
S'com.typemytype.robofont.layerData'
p2
(dp3
s."
LayerCount: 2
Fore
SplineSet
146 0 m 257
 557 0 l 258
 1015 0 1231 85 1231 413 c 256
 1231 618 1148 754 921 780 c 257
 1135.87279378 808.114197317 1186.02276464 935.592950033 1186.02276464 1104.77912093 c 0
 1186.02276464 1416.48481534 893.470981042 1464 593 1464 c 258
 146 1464 l 257
 146 0 l 257
321 133 m 257
 321 717 l 257
 609 717 l 258
 897 717 1057 684 1057 417 c 256
 1057 143 823 133 602 133 c 258
 321 133 l 257
600 1331 m 258
 840.136837544 1331 1019.09884634 1326.31634597 1019.09884634 1094.62116707 c 0
 1019.09884634 871.119148387 900.88488219 845 595 845 c 258
 321 845 l 257
 321 1331 l 257
 600 1331 l 258
EndSplineSet
EndChar

StartChar: C
Encoding: 39 67 14
Width: 1394
VWidth: 0
Flags: HW
PickledData: "(dp1
S'com.typemytype.robofont.layerData'
p2
(dp3
s."
LayerCount: 2
Fore
SplineSet
755 -24 m 256
 1013 -24 1220 93 1300 361 c 257
 1138 398 l 257
 1088 233 976 116 748 116 c 256
 416 116 301 338 301 735 c 256
 301 1132 416 1350 748 1350 c 256
 976 1350 1088 1233 1138 1067 c 257
 1300 1105 l 257
 1220 1373 1013 1490 755 1490 c 256
 356 1490 116 1266 116 735 c 256
 116 204 356 -24 755 -24 c 256
EndSplineSet
EndChar

StartChar: D
Encoding: 40 68 20
Width: 1429
VWidth: 0
Flags: HW
PickledData: "(dp1
S'com.typemytype.robofont.layerData'
p2
(dp3
s."
LayerCount: 2
Fore
SplineSet
321 134 m 257
 321 1330 l 257
 667 1330 l 258
 1036 1330 1136 1129 1136 737 c 256
 1136 290 1007 134 609 134 c 258
 321 134 l 257
146 0 m 257
 663 0 l 258
 1115 0 1313 207 1313 738 c 256
 1313 1280 1091 1464 667 1464 c 258
 146 1464 l 257
 146 0 l 257
EndSplineSet
EndChar

StartChar: Delta
Encoding: -1 916 23
Width: 1332
VWidth: 0
Flags: W
LayerCount: 2
Fore
SplineSet
86 0 m 257
 1266 0 l 257
 737 1482 l 257
 611 1482 l 257
 86 0 l 257
247 128 m 257
 651 1307 l 257
 1061 128 l 257
 247 128 l 257
EndSplineSet
EndChar

StartChar: E
Encoding: 41 69 25
Width: 1216
VWidth: 0
Flags: HW
PickledData: "(dp1
S'segmentType'
p2
S'line'
p3
sS'b'
(dp4
sS'anchors'
p5
(tsS'lib'
p6
(dp7
sS'unicodes'
p8
(tsS'width'
p9
S'1202'
p10
sS'points'
p11
(dp12
sS'contours'
p13
(dp14
sS'components'
p15
(tsS'y'
S'112'
p16
sS'x'
S'1128'
p17
sS'com.typemytype.robofont.layerData'
p18
(dp19
sS'name'
p20
S'E'
s."
AnchorPoint: "ogonek" 749 1 basechar 0
LayerCount: 2
Fore
SplineSet
146 0 m 257
 1143 0 l 257
 1143 133 l 257
 321 133 l 257
 321 711 l 257
 1027 711 l 257
 1027 848 l 257
 321 848 l 257
 321 1331 l 257
 1132 1331 l 257
 1132 1464 l 257
 146 1464 l 257
 146 0 l 257
EndSplineSet
EndChar

StartChar: Eng
Encoding: 269 330 34
Width: 1498
VWidth: 0
Flags: HW
LayerCount: 2
Fore
SplineSet
902 -519 m 257
 1185 -517 1352 -371 1352 -57 c 258
 1352 655 l 257
 1199 655 l 257
 1199 -58 l 258
 1199 -277 1106 -390 903 -391 c 257
 902 -519 l 257
EndSplineSet
Refer: 70 78 N 1 0 0 1 0 0 2
EndChar

StartChar: Eth
Encoding: 147 208 36
Width: 1444
VWidth: 0
Flags: HW
PickledData: "(dp1
S'b'
(dp2
sS'anchors'
p3
(tsS'lib'
p4
(dp5
sS'unicodes'
p6
(tsS'width'
p7
S'1444'
p8
sS'contours'
p9
(tsS'components'
p10
(tsS'com.typemytype.robofont.layerData'
p11
(dp12
sS'name'
p13
S'Eth'
p14
s."
LayerCount: 2
Fore
SplineSet
0 694 m 257
 558 694 l 257
 558 796 l 257
 0 796 l 257
 0 694 l 257
EndSplineSet
Refer: 20 68 N 1 0 0 1 0 0 2
EndChar

StartChar: Euro
Encoding: 462 8364 37
Width: 1275
VWidth: 0
Flags: HW
PickledData: "(dp1
S'b'
(dp2
sS'anchors'
p3
(tsS'lib'
p4
(dp5
sS'unicodes'
p6
(tsS'width'
p7
S'1275'
p8
sS'contours'
p9
(tsS'components'
p10
(tsS'com.typemytype.robofont.layerData'
p11
(dp12
sS'name'
p13
S'Euro'
p14
s."
LayerCount: 2
Fore
SplineSet
-47 542 m 257
 687 542 l 257
 687 657 l 257
 -47 657 l 257
 -47 542 l 257
-47 791 m 257
 687 791 l 257
 687 906 l 257
 -47 906 l 257
 -47 791 l 257
EndSplineSet
Refer: 14 67 N 1 0 0 1 0 0 2
EndChar

StartChar: F
Encoding: 42 70 38
Width: 1192
VWidth: 0
Flags: HW
PickledData: "(dp1
S'segmentType'
p2
S'line'
p3
sS'b'
(dp4
sS'anchors'
p5
(tsS'lib'
p6
(dp7
sS'unicodes'
p8
(tsS'width'
p9
S'1178.66666667'
p10
sS'points'
p11
(dp12
sS'contours'
p13
(dp14
sS'components'
p15
(tsS'y'
S'1464'
p16
sS'x'
S'1117'
p17
sS'com.typemytype.robofont.layerData'
p18
(dp19
sS'name'
p20
S'F'
s."
LayerCount: 2
Fore
SplineSet
146 0 m 257
 321 0 l 257
 321 702 l 257
 1028 702 l 257
 1028 838 l 257
 321 838 l 257
 321 1331 l 257
 1137 1331 l 257
 1137 1464 l 257
 146 1464 l 257
 146 0 l 257
EndSplineSet
EndChar

StartChar: G
Encoding: 43 71 39
Width: 1407
VWidth: 0
Flags: HW
PickledData: "(dp1
S'com.typemytype.robofont.layerData'
p2
(dp3
s."
LayerCount: 2
Fore
SplineSet
734 -25 m 256
 918 -25 1055 53 1118 166 c 257
 1153 0 l 257
 1268 0 l 257
 1268 0 1278 428 1278 581 c 258
 1278 803 l 257
 758 803 l 257
 758 653 l 257
 1104 653 l 257
 1104 447 l 258
 1104 220 918 116 752 116 c 256
 438 116 301 318 301 721 c 256
 301 1149 426 1350 747 1350 c 256
 931 1350 1054 1256 1121 1074 c 257
 1273 1126 l 257
 1189 1363 1018 1490 750 1490 c 256
 366 1490 116 1278 116 722 c 256
 116 166 388 -25 734 -25 c 256
EndSplineSet
EndChar

StartChar: H
Encoding: 44 72 45
Width: 1483
VWidth: 0
Flags: HW
PickledData: "(dp1
S'segmentType'
p2
S'line'
p3
sS'b'
(dp4
sS'anchors'
p5
(tsS'lib'
p6
(dp7
sS'unicodes'
p8
(tsS'width'
p9
S'1457'
p10
sS'points'
p11
(dp12
sS'contours'
p13
(dp14
sS'components'
p15
(tsS'y'
S'836'
p16
sS'x'
S'294'
p17
sS'com.typemytype.robofont.layerData'
p18
(dp19
sS'name'
p20
S'H'
s."
LayerCount: 2
Fore
SplineSet
146 0 m 257
 321 0 l 257
 321 700 l 257
 1162 700 l 257
 1162 0 l 257
 1337 0 l 257
 1337 1464 l 257
 1162 1464 l 257
 1162 839 l 257
 321 839 l 257
 321 1464 l 257
 146 1464 l 257
 146 0 l 257
EndSplineSet
EndChar

StartChar: Hbar
Encoding: 233 294 46
Width: 1457
VWidth: 0
Flags: HW
LayerCount: 2
Fore
SplineSet
48 1144 m 257
 1423 1144 l 257
 1423 1240 l 257
 48 1240 l 257
 48 1144 l 257
EndSplineSet
Refer: 45 72 N 1 0 0 1 0 0 2
EndChar

StartChar: I
Encoding: 45 73 48
Width: 464
VWidth: 0
Flags: HW
LayerCount: 2
Fore
SplineSet
148 0 m 257
 323 0 l 257
 323 1464 l 257
 148 1464 l 257
 148 0 l 257
EndSplineSet
EndChar

StartChar: J
Encoding: 46 74 59
Width: 997
VWidth: 0
Flags: HW
LayerCount: 2
Fore
SplineSet
426 -23 m 256
 740 -23 861 166 861 544 c 258
 861 1464 l 257
 686 1464 l 257
 686 541 l 258
 686 294 653 120 435 119 c 256
 299 119 222 205 184 376 c 257
 27 333 l 257
 70 116 198 -23 426 -23 c 256
EndSplineSet
EndChar

StartChar: K
Encoding: 47 75 61
Width: 1274
VWidth: 0
Flags: HW
PickledData: "(dp1
S'segmentType'
p2
S'line'
p3
sS'b'
(dp4
sS'anchors'
p5
(tsS'lib'
p6
(dp7
sS'unicodes'
p8
(tsS'width'
p9
S'1252'
p10
sS'points'
p11
(dp12
sS'contours'
p13
(dp14
sS'components'
p15
(tsS'y'
S'1464'
p16
sS'x'
S'1003'
p17
sS'com.typemytype.robofont.layerData'
p18
(dp19
sS'name'
p20
S'K'
s."
LayerCount: 2
Fore
SplineSet
146 0 m 257
 321 0 l 257
 321 545 l 257
 563 795 l 257
 1072 0 l 257
 1272 0 l 257
 683 918 l 257
 1212 1464 l 257
 1000 1464 l 257
 321 754 l 257
 321 1464 l 257
 146 1464 l 257
 146 0 l 257
EndSplineSet
EndChar

StartChar: L
Encoding: 48 76 63
Width: 1045
VWidth: 0
Flags: HW
PickledData: "(dp1
S'segmentType'
p2
S'line'
p3
sS'b'
(dp4
sS'anchors'
p5
(tsS'lib'
p6
(dp7
sS'unicodes'
p8
(tsS'width'
p9
S'1020'
p10
sS'points'
p11
(dp12
sS'contours'
p13
(dp14
sS'components'
p15
(tsS'y'
S'112'
p16
sS'x'
S'1041'
p17
sS'com.typemytype.robofont.layerData'
p18
(dp19
sS'name'
p20
S'L'
s."
AnchorPoint: "caron.alt" 472 1023 basechar 0
LayerCount: 2
Fore
SplineSet
146 0 m 257
 1060 0 l 257
 1060 133 l 257
 321 133 l 257
 321 1464 l 257
 146 1464 l 257
 146 0 l 257
EndSplineSet
EndChar

StartChar: Lslash
Encoding: 260 321 68
Width: 1055
VWidth: 0
Flags: HW
PickledData: "(dp1
S'b'
(dp2
sS'anchors'
p3
(tsS'lib'
p4
(dp5
sS'unicodes'
p6
(tsS'width'
p7
S'1055'
p8
sS'contours'
p9
(tsS'components'
p10
(tsS'com.typemytype.robofont.layerData'
p11
(dp12
sS'name'
p13
S'Lslash'
p14
s."
LayerCount: 2
Fore
SplineSet
-25 618 m 257
 610 878 l 257
 610 1024 l 257
 -25 764 l 257
 -25 618 l 257
EndSplineSet
Refer: 63 76 N 1 0 0 1 0 0 2
EndChar

StartChar: M
Encoding: 49 77 69
Width: 1662
VWidth: 0
Flags: HW
PickledData: "(dp1
S'com.typemytype.robofont.layerData'
p2
(dp3
s."
LayerCount: 2
Fore
SplineSet
146 0 m 257
 313 0 l 257
 313 1246 l 257
 748 250 l 257
 909 250 l 257
 1355 1239 l 257
 1355 0 l 257
 1516 0 l 257
 1516 1464 l 257
 1286 1464 l 257
 835 437 l 257
 400 1464 l 257
 146 1464 l 257
 146 0 l 257
EndSplineSet
EndChar

StartChar: N
Encoding: 50 78 70
Width: 1498
VWidth: 0
Flags: HW
PickledData: "(dp1
S'com.typemytype.robofont.layerData'
p2
(dp3
s."
LayerCount: 2
Fore
SplineSet
146 0 m 257
 304 0 l 257
 304 1256 l 257
 1197 0 l 257
 1352 0 l 257
 1352 1464 l 257
 1199 1464 l 257
 1199 267 l 257
 340 1464 l 257
 146 1464 l 257
 146 0 l 257
EndSplineSet
EndChar

StartChar: O
Encoding: 51 79 75
Width: 1486
VWidth: 0
Flags: HW
PickledData: "(dp1
S'angle'
p2
S'90'
p3
sS'com.typemytype.robofont.guides'
p4
(dp5
sS'com.typemytype.robofont.layerData'
p6
(dp7
sS'magnetic'
p8
S'5'
sS'y'
S'1471'
p9
sS'x'
S'723'
p10
s."
AnchorPoint: "ogonek" 800 0 basechar 0
LayerCount: 2
Fore
SplineSet
742 115 m 256
 412 115 302 317 302 741 c 256
 302 1116 398 1348 741 1348 c 256
 1086 1348 1184 1117 1184 740 c 256
 1184 312 1074 115 742 115 c 256
740 -24 m 256
 1135 -24 1369 189 1369 741 c 256
 1369 1285 1125 1488 741 1488 c 256
 358 1488 116 1286 116 740 c 256
 116 182 353 -24 740 -24 c 256
EndSplineSet
EndChar

StartChar: OE
Encoding: 277 338 76
Width: 2171
VWidth: 0
Flags: HW
PickledData: "(dp1
S'segmentType'
p2
S'curve'
p3
sS'b'
(dp4
sS'anchors'
p5
(tsS'lib'
p6
(dp7
sS'unicodes'
p8
(tsS'width'
p9
S'2171'
p10
sS'points'
p11
(dp12
sS'contours'
p13
(dp14
sS'components'
p15
(tsS'y'
S'1374'
p16
sS'x'
S'368'
p17
sS'com.typemytype.robofont.layerData'
p18
(dp19
sS'name'
p20
S'OE'
p21
s."
LayerCount: 2
Fore
SplineSet
712 -25 m 256
 965 -25 1107 71 1164 224 c 257
 1164 0 l 257
 2121 0 l 257
 2121 134 l 257
 1340 134 l 257
 1340 711 l 257
 2004 711 l 257
 2004 848 l 257
 1340 848 l 257
 1340 1330 l 257
 2110 1330 l 257
 2110 1464 l 257
 1163 1464 l 257
 1164 1256 l 257
 1093 1406 952 1491 715 1491 c 256
 336 1491 107 1282 107 740 c 256
 107 186 329 -25 712 -25 c 256
724.893453095 116.927478002 m 0
 393.661452981 116.927478002 291 310.10681633 291 741 c 256
 291 1139.54158579 391.210325846 1350.17073211 733.416727491 1350.17073211 c 0
 1064.85707666 1350.17073211 1164 1195.75676455 1164 716 c 256
 1164 279.334940733 1046.8793182 116.927478002 724.893453095 116.927478002 c 0
EndSplineSet
EndChar

StartChar: Omega
Encoding: -1 937 84
Width: 1758
VWidth: 0
Flags: W
LayerCount: 2
Fore
SplineSet
114 0 m 257
 770 0 l 257
 770 114 l 257
 475 237 321 510 321 779 c 256
 321 1147 602 1329 879 1329 c 256
 1157 1329 1437 1147 1437 779 c 256
 1437 510 1283 237 988 114 c 257
 988 0 l 257
 1644 0 l 257
 1644 115 l 257
 1189 115 l 257
 1477 268 1617 530 1617 779 c 256
 1617 1255 1250 1491 879 1491 c 256
 508 1491 141 1255 141 779 c 256
 141 530 281 268 569 115 c 257
 114 115 l 257
 114 0 l 257
EndSplineSet
EndChar

StartChar: Oslash
Encoding: 155 216 85
Width: 1497
VWidth: 0
Flags: HW
PickledData: "(dp1
S'b'
(dp2
sS'anchors'
p3
(tsS'lib'
p4
(dp5
sS'unicodes'
p6
(tsS'width'
p7
S'1497'
p8
sS'contours'
p9
(tsS'components'
p10
(tsS'com.typemytype.robofont.layerData'
p11
(dp12
sS'name'
p13
S'Oslash'
p14
s."
LayerCount: 2
Fore
SplineSet
337 -208 m 257
 1227 1610 l 257
 1126 1663 l 257
 235 -155 l 257
 337 -208 l 257
EndSplineSet
Refer: 75 79 N 1 0 0 1 0 0 2
EndChar

StartChar: P
Encoding: 52 80 88
Width: 1269
VWidth: 0
Flags: HW
PickledData: "(dp1
S'com.typemytype.robofont.layerData'
p2
(dp3
s."
LayerCount: 2
Fore
SplineSet
146 0 m 257
 321 0 l 257
 321 631 l 257
 504 631 l 258
 1016 631 1210 724 1210 1063 c 256
 1210 1360 1027 1464 551 1464 c 258
 146 1464 l 257
 146 0 l 257
321 766 m 257
 321 1330 l 257
 532 1330 l 258
 881 1330 1032 1297 1032 1055 c 256
 1032 816 896 767 552 766 c 257
 321 766 l 257
EndSplineSet
EndChar

StartChar: Q
Encoding: 53 81 89
Width: 1496
VWidth: 0
Flags: HW
PickledData: "(dp1
S'segmentType'
p2
S'curve'
p3
sS'b'
(dp4
sS'anchors'
p5
(tsS'lib'
p6
(dp7
sS'unicodes'
p8
(tsS'width'
p9
S'1434'
p10
sS'points'
p11
(dp12
sS'contours'
p13
(dp14
sS'components'
p15
(tsS'y'
S'1374'
p16
sS'x'
S'1076'
p17
sS'com.typemytype.robofont.layerData'
p18
(dp19
sS'name'
p20
S'Q'
s."
LayerCount: 2
Fore
SplineSet
1276 -353 m 257
 1406 -255 l 257
 1144 96 l 257
 1290 211 1369 418 1369 741 c 256
 1369 1285 1125 1488 741 1488 c 256
 358 1488 116 1286 116 740 c 256
 116 182 353 -24 740 -24 c 256
 845 -24 938 -9 1018 23 c 257
 1276 -353 l 257
742 115 m 256
 412 115 302 317 302 741 c 256
 302 1116 398 1348 741 1348 c 256
 1086 1348 1184 1117 1184 740 c 256
 1184 312 1074 115 742 115 c 256
EndSplineSet
EndChar

StartChar: R
Encoding: 54 82 90
Width: 1316
VWidth: 0
Flags: HW
PickledData: "(dp1
S'com.typemytype.robofont.layerData'
p2
(dp3
s."
LayerCount: 2
Fore
SplineSet
146 0 m 257
 321 0 l 257
 321 670 l 257
 741 670 l 257
 1073 0 l 257
 1262 0 l 257
 918 694 l 257
 1122 733 1233 872 1233 1079 c 256
 1233 1342 1081 1464 694 1464 c 258
 146 1464 l 257
 146 0 l 257
321 803 m 257
 321 1330 l 257
 685 1330 l 258
 886 1330 1054 1306 1054 1077 c 256
 1054 845 892 803 678 803 c 258
 321 803 l 257
EndSplineSet
EndChar

StartChar: S
Encoding: 55 83 94
Width: 1222
VWidth: 0
Flags: HW
PickledData: "(dp1
S'segmentType'
p2
S'curve'
p3
sS'b'
(dp4
sS'anchors'
p5
(tsS'lib'
p6
(dp7
sS'unicodes'
p8
(tsS'width'
p9
S'1216'
p10
sS'points'
p11
(dp12
sS'contours'
p13
(dp14
sS'components'
p15
(tsS'y'
S'1491'
p16
sS'x'
S'372'
p17
sS'com.typemytype.robofont.layerData'
p18
(dp19
sS'name'
p20
S'S'
s."
LayerCount: 2
Fore
SplineSet
615 -25 m 256
 955 -25 1160 123 1160 393 c 256
 1160 658 1000 752 719 844 c 256
 476 923 303 947 303 1138 c 256
 303 1287 443 1351 641 1351 c 256
 794 1351 916 1286 998 1145 c 257
 1123 1240 l 257
 1002 1422 855 1491 618 1491 c 256
 335 1491 119 1373 119 1125 c 256
 119 869 313 799 566 718 c 256
 871 621 976 579 977 387 c 256
 977 189 817 117 632 117 c 256
 390 117 258 212 193 437 c 257
 45 373 l 257
 98 86 350 -25 615 -25 c 256
EndSplineSet
EndChar

StartChar: Sigma
Encoding: 415 931 100
Width: 1224
VWidth: 0
Flags: HW
LayerCount: 2
Fore
SplineSet
1125 0 m 257
 1125 141 l 257
 279 141 l 257
 787 680 l 257
 787 779 l 257
 310 1326 l 257
 1125 1326 l 257
 1125 1464 l 257
 102 1464 l 257
 102 1327 l 257
 613 722 l 257
 102 160 l 257
 102 0 l 257
 1125 0 l 257
EndSplineSet
EndChar

StartChar: T
Encoding: 56 84 101
Width: 1119
VWidth: 0
Flags: HW
PickledData: "(dp1
S'segmentType'
p2
S'line'
p3
sS'b'
(dp4
sS'anchors'
p5
(tsS'lib'
p6
(dp7
sS'unicodes'
p8
(tsS'width'
p9
S'1119'
p10
sS'points'
p11
(dp12
sS'contours'
p13
(dp14
sS'components'
p15
(tsS'y'
S'1352'
p16
sS'x'
S'483'
p17
sS'com.typemytype.robofont.layerData'
p18
(dp19
sS'name'
p20
S'T'
s."
LayerCount: 2
Fore
SplineSet
481 0 m 257
 656 0 l 257
 656 1331 l 257
 1110 1331 l 257
 1110 1464 l 257
 9 1464 l 257
 9 1331 l 257
 481 1331 l 257
 481 0 l 257
EndSplineSet
EndChar

StartChar: Tbar
Encoding: 297 358 102
Width: 1119
VWidth: 0
Flags: HW
LayerCount: 2
Fore
SplineSet
243 723 m 257
 884 723 l 257
 884 843 l 257
 243 843 l 257
 243 723 l 257
EndSplineSet
Refer: 101 84 N 1 0 0 1 0 0 2
EndChar

StartChar: Thorn
Encoding: 161 222 106
Width: 1261
VWidth: 0
Flags: HW
PickledData: "(dp1
S'com.typemytype.robofont.layerData'
p2
(dp3
s."
LayerCount: 2
Fore
SplineSet
140 0 m 257
 328 0 l 257
 328 335 l 257
 508 335 l 258
 1022 335 1211 445 1211 776 c 256
 1211 1065 1039 1198 567 1198 c 258
 328 1198 l 257
 328 1464 l 257
 140 1464 l 257
 140 0 l 257
328 471 m 257
 328 1061 l 257
 544 1061 l 258
 896 1061 1033 997 1033 771 c 256
 1033 532 896 472 564 471 c 257
 328 471 l 257
EndSplineSet
EndChar

StartChar: U
Encoding: 57 85 107
Width: 1364
VWidth: 0
Flags: HW
PickledData: "(dp1
S'com.typemytype.robofont.layerData'
p2
(dp3
s."
AnchorPoint: "ogonek" 804 0 basechar 0
LayerCount: 2
Fore
SplineSet
678 -24 m 256
 1058 -24 1244 159 1244 579 c 258
 1244 1464 l 257
 1069 1464 l 257
 1069 584 l 258
 1069 289 996 115 684 115 c 256
 370 115 296 287 296 584 c 258
 296 1464 l 257
 120 1464 l 257
 120 572 l 258
 120 150 312 -24 678 -24 c 256
EndSplineSet
EndChar

StartChar: V
Encoding: 58 86 118
Width: 1164
VWidth: 0
Flags: HW
PickledData: "(dp1
S'com.typemytype.robofont.layerData'
p2
(dp3
s."
LayerCount: 2
Fore
SplineSet
499 0 m 257
 666 0 l 257
 1168 1464 l 257
 995 1464 l 257
 587 231 l 257
 172 1464 l 257
 -10 1464 l 257
 499 0 l 257
EndSplineSet
EndChar

StartChar: W
Encoding: 59 87 119
Width: 1835
VWidth: 0
Flags: HW
PickledData: "(dp1
S'b'
(dp2
sS'anchors'
p3
(tsS'lib'
p4
(dp5
sS'unicodes'
p6
(tsS'width'
p7
S'1797'
p8
sS'contours'
p9
(tsS'components'
p10
(tsS'com.typemytype.robofont.layerData'
p11
(dp12
sS'name'
p13
S'W'
s."
LayerCount: 2
Fore
SplineSet
429 0 m 257
 563 0 l 257
 924 1129 l 257
 1246 0 l 257
 1398 0 l 257
 1823 1464 l 257
 1656 1464 l 257
 1333 260 l 257
 998 1464 l 257
 874 1464 l 257
 503 281 l 257
 195 1464 l 257
 12 1464 l 257
 429 0 l 257
EndSplineSet
EndChar

StartChar: X
Encoding: 60 88 124
Width: 1269
VWidth: 0
Flags: HW
PickledData: "(dp1
S'segmentType'
p2
S'line'
p3
sS'b'
(dp4
sS'anchors'
p5
(tsS'lib'
p6
(dp7
sS'unicodes'
p8
(tsS'width'
p9
S'1245'
p10
sS'points'
p11
(dp12
sS'contours'
p13
(dp14
sS'components'
p15
(tsS'y'
S'0'
sS'x'
S'1239'
p16
sS'com.typemytype.robofont.layerData'
p17
(dp18
sS'name'
p19
S'X'
s."
LayerCount: 2
Fore
SplineSet
2 0 m 257
 202 0 l 257
 631 618 l 257
 1060 0 l 257
 1267 0 l 257
 736 769 l 257
 1225 1464 l 257
 1025 1464 l 257
 638 910 l 257
 254 1464 l 257
 45 1464 l 257
 533 759 l 257
 2 0 l 257
EndSplineSet
EndChar

StartChar: Y
Encoding: 61 89 125
Width: 1184
VWidth: 0
Flags: HW
PickledData: "(dp1
S'com.typemytype.robofont.layerData'
p2
(dp3
s."
LayerCount: 2
Fore
SplineSet
506 0 m 257
 680 0 l 257
 680 548 l 257
 1186 1464 l 257
 999 1464 l 257
 595 707 l 257
 186 1464 l 257
 -3 1464 l 257
 506 549 l 257
 506 0 l 257
EndSplineSet
EndChar

StartChar: Z
Encoding: 62 90 130
Width: 1176
VWidth: 0
Flags: HW
PickledData: "(dp1
S'com.typemytype.robofont.layerData'
p2
(dp3
s."
LayerCount: 2
Fore
SplineSet
45 0 m 257
 1134 0 l 257
 1140 132 l 257
 269 132 l 257
 1134 1351 l 257
 1134 1464 l 257
 128 1464 l 257
 128 1332 l 257
 909 1332 l 257
 45 118 l 257
 45 0 l 257
EndSplineSet
EndChar

StartChar: a
Encoding: 69 97 134
Width: 1002
VWidth: 0
Flags: HW
PickledData: "(dp1
S'segmentType'
p2
S'line'
p3
sS'b'
(dp4
sS'anchors'
p5
(tsS'lib'
p6
(dp7
sS'unicodes'
p8
(tsS'width'
p9
S'999'
p10
sS'points'
p11
(dp12
sS'contours'
p13
(dp14
sS'components'
p15
(tsS'y'
S'500'
p16
sS'x'
S'736'
p17
sS'com.typemytype.robofont.layerData'
p18
(dp19
sS'name'
p20
S'a'
s."
LayerCount: 2
Fore
SplineSet
394 -25 m 256
 541 -25 654 28 726 128 c 257
 741 0 l 257
 887 0 l 257
 887 676 l 258
 887 929 755 1045 513 1045 c 256
 345 1045 229 1001 119 919 c 257
 119 919 187 819 187 818 c 257
 281 887 380 924 505 924 c 256
 676 924 717 856 717 645 c 258
 717 594 l 257
 604 577 l 258
 288 530 90 491 90 235 c 256
 90 57 225 -25 394 -25 c 256
421 95 m 256
 294.894850875 95 247.987592203 146.874573589 247.987592203 253.122589416 c 0
 247.987592203 377.676153708 308.315899488 418.379115219 587 464 c 257
 717 486 l 257
 717 243 l 257
 637 147 542 95 421 95 c 256
EndSplineSet
EndChar

StartChar: acute
Encoding: 119 180 138
Width: 496
VWidth: 0
Flags: HW
PickledData: "(dp1
S'b'
(dp2
sS'anchors'
p3
(tsS'lib'
p4
(dp5
sS'unicodes'
p6
(tsS'width'
p7
S'496'
p8
sS'contours'
p9
(tsS'components'
p10
(tsS'com.typemytype.robofont.layerData'
p11
(dp12
sS'name'
p13
S'acute'
p14
s."
LayerCount: 2
Fore
SplineSet
47 1151 m 257
 160 1150 l 257
 484 1470 l 257
 251 1470 l 257
 47 1151 l 257
EndSplineSet
EndChar

StartChar: ae
Encoding: 169 230 140
Width: 1667
VWidth: 0
Flags: HW
PickledData: "(dp1
S'segmentType'
p2
S'curve'
p3
sS'b'
(dp4
sS'anchors'
p5
(tsS'lib'
p6
(dp7
sS'unicodes'
p8
(tsS'width'
p9
S'1667'
p10
sS'points'
p11
(dp12
sS'contours'
p13
(dp14
sS'components'
p15
(tsS'y'
S'158'
p16
sS'x'
S'771'
p17
sS'com.typemytype.robofont.layerData'
p18
(dp19
sS'name'
p20
S'ae'
p21
s."
LayerCount: 2
Fore
SplineSet
79.3640705508 273.257176481 m 0
 79.3640705508 62.0833376021 237.355166939 -24 429 -24 c 256
 617 -24 757 37 829 203 c 257
 888 40 1044 -24 1195 -24 c 256
 1375 -23 1515 83 1570 234 c 257
 1453 283 l 257
 1426 218 1358 100 1195 100 c 256
 995 101 920 249 913 487 c 257
 1588 499 l 257
 1590 516 1591 563 1591 572 c 256
 1591 844 1477 1045 1192 1045 c 256
 1049 1045 914 978 848 831 c 257
 801 991 671 1045 518 1045 c 256
 366 1045 245 1008 131 929 c 257
 197 824 l 257
 277.120037413 875.571518335 369.961478701 922.05447512 497.393060969 922.05447512 c 0
 702.64559925 922.05447512 740.816505313 832.762101533 744 594 c 257
 578 592 l 257
 264.584459407 586.196008508 79.3640705508 507.404996319 79.3640705508 273.257176481 c 0
454.861427309 99.857889857 m 0
 324.134731371 99.857889857 250.126480709 153.51015861 250.126480709 275.786951918 c 0
 250.126480709 425.051274505 380.840863764 467.224677255 590 472 c 258
 744 475 l 257
 744 396 l 258
 744 181.197170121 630.555982827 99.857889857 454.861427309 99.857889857 c 0
915 600 m 257
 925 786 1021 922 1192 922 c 256
 1363 922 1430 814 1441 610 c 257
 915 600 l 257
EndSplineSet
EndChar

StartChar: ampersand
Encoding: 10 38 145
Width: 1430
VWidth: 0
Flags: HW
PickledData: "(dp1
S'segmentType'
p2
S'line'
p3
sS'b'
(dp4
sS'anchors'
p5
(tsS'lib'
p6
(dp7
sS'unicodes'
p8
(tsS'width'
p9
S'1430'
p10
sS'points'
p11
(dp12
sS'contours'
p13
(dp14
sS'components'
p15
(tsS'y'
S'1044'
p16
sS'x'
S'1010'
p17
sS'com.typemytype.robofont.layerData'
p18
(dp19
sS'name'
p20
S'ampersand'
p21
s."
LayerCount: 2
Fore
SplineSet
673 1491 m 256
 487.398123455 1491 320.638775996 1387.96059117 320.638775996 1192.67610599 c 0
 320.638775996 1102.9226025 350.380433749 1024.01950683 419 946 c 258
 1282 -28 l 257
 1388 71 l 257
 566 992 l 258
 506.679506822 1058.62147695 482.34000258 1127.74159597 482.34000258 1190.99919052 c 0
 482.34000258 1289.60015191 565.364214034 1351 678 1351 c 256
 778.986617921 1351 862.062125639 1292.0178798 862.062125639 1200.17573835 c 0
 862.062125639 1122.46211303 813.276538951 1013.73105651 539 905 c 256
 223.371144734 779.750454259 97.9848350602 632.534753432 97.9848350602 409.332005759 c 0
 97.9848350602 169.022581833 293.466594336 -25 582 -25 c 256
 881 -25 1243 143 1319 780 c 257
 1173 802 l 257
 1120 359 906 116 608 116 c 256
 368.961995943 116 272.957564855 261.466268283 272.957564855 422.938341475 c 0
 272.957564855 561.213744351 343.025807816 673.91437015 625 808 c 256
 869 924 1015 1025 1015 1211 c 256
 1015 1393 861 1491 673 1491 c 256
EndSplineSet
EndChar

StartChar: afii57929
Encoding: 399 700 147
Width: 600
VWidth: 0
Flags: HW
LayerCount: 2
Fore
SplineSet
285 1174 m 257
 427 1261 439 1389 442 1563 c 257
 442 1672 l 257
 202 1672 l 257
 202 1462 l 257
 306 1449 l 257
 304 1345 249 1272 221 1248 c 257
 285 1174 l 257
EndSplineSet
EndChar

StartChar: approxequal
Encoding: 478 8776 148
Width: 1005
VWidth: 0
Flags: HW
LayerCount: 2
Fore
SplineSet
793 553 m 256
 684.227967238 553 480.934576085 665.265090053 251.830741881 665.265090053 c 0
 166.542103678 665.265090053 96.1681088128 636.632551016 82 426 c 257
 200 426 l 257
 199 505 233 531 292 531 c 256
 407 531 616 429 837 419 c 256
 841.294813316 418.799307789 845.496183149 418.696892345 849.605273501 418.696892345 c 0
 947.869123555 418.696892345 993.36124598 477.265058039 1002 651 c 257
 883 651 l 257
 878 578 846 553 793 553 c 256
744 860 m 256
 635.229483777 860 431.944016659 972.264919695 202.843701937 972.264919695 c 0
 117.549232891 972.264919695 47.1688264459 943.587808259 33 732 c 257
 151 732 l 257
 150 812 184 838 243 838 c 256
 358 838 567 736 788 725 c 256
 791.504494072 724.868990876 794.946770853 724.802344466 798.327462751 724.802344466 c 0
 898.166815066 724.802344466 944.294770529 782.928162869 953 958 c 257
 834 958 l 257
 829 884 797 860 744 860 c 256
EndSplineSet
EndChar

StartChar: asciicircum
Encoding: 66 94 150
Width: 1053
VWidth: 0
Flags: HW
LayerCount: 2
Fore
SplineSet
91 100 m 257
 257 100 l 257
 523 807 l 257
 782 100 l 257
 965 100 l 257
 607 999 l 257
 455 999 l 257
 91 100 l 257
EndSplineSet
EndChar

StartChar: asciitilde
Encoding: 98 126 151
Width: 962
VWidth: 0
Flags: HW
PickledData: "(dp1
S'com.typemytype.robofont.layerData'
p2
(dp3
s."
LayerCount: 2
Fore
SplineSet
237 805 m 256
 335.617966675 805 604.910928585 683.923389294 775.419863912 683.923389294 c 0
 878.99320186 683.923389294 936.153127832 769.266727077 945 958 c 257
 802 958 l 257
 784 875 780 846 723 846 c 256
 645.976958536 846 342.152967634 960.088996129 210.004754793 960.088996129 c 0
 120.622293643 960.088996129 31.5656423441 925.137149037 17 695 c 257
 159 695 l 257
 180 798 205 805 237 805 c 256
EndSplineSet
EndChar

StartChar: asterisk
Encoding: 14 42 152
Width: 826
VWidth: 0
Flags: HW
PickledData: "(dp1
S'com.typemytype.robofont.layerData'
p2
(dp3
s."
LayerCount: 2
Fore
SplineSet
363 759 m 257
 466 759 l 257
 457 1043 l 257
 714 888 l 257
 764 984 l 257
 497 1114 l 257
 763 1244 l 257
 713 1340 l 257
 457 1186 l 257
 466 1468 l 257
 363 1468 l 257
 371 1185 l 257
 114 1339 l 257
 64 1243 l 257
 331 1113 l 257
 65 983 l 257
 115 887 l 257
 371 1042 l 257
 363 759 l 257
EndSplineSet
EndChar

StartChar: at
Encoding: 36 64 153
Width: 1704
VWidth: 0
Flags: HW
PickledData: "(dp1
S'com.typemytype.robofont.layerData'
p2
(dp3
s."
LayerCount: 2
Fore
SplineSet
1089 414 m 257
 1101.60286213 264.866131412 1203.60790921 227.447275251 1273.65001528 227.447275251 c 0
 1447.99295489 227.447275251 1603 409.872227988 1603 721 c 256
 1603 1117 1264 1381 883 1381 c 256
 389 1381 102 984 102 601 c 256
 102 234 332 -98 842 -98 c 256
 990 -98 1138 -61 1288 18 c 257
 1236 117 l 257
 1122 62 980 24 843 24 c 256
 431 24 254 291 254 592 c 256
 254 904 496 1255 886 1255 c 256
 1188 1255 1461 1069 1461 733 c 256
 1461 441.715630349 1376.92158695 334.830507495 1283.47716948 334.830507495 c 0
 1218.51984433 334.830507495 1180.76366797 381.042153685 1180.76366797 444.667938187 c 0
 1180.76366797 453.475666376 1181.49799994 462.612499622 1183 472 c 258
 1273 1042 l 257
 1155 1042 l 257
 1129 969 l 257
 1045 1032 956 1066 871 1066 c 256
 619 1066 437 804 437 550 c 256
 437 366.89059666 551.544004839 191.874507376 772.432976886 191.874507376 c 0
 903.869866969 191.874507376 1040.04784277 282.808218632 1089 414 c 257
781 308 m 256
 655 308 588 417 588 547 c 256
 588 780 710 953 883 953 c 256
 954 953 1029 926 1103 873 c 257
 1064 631 l 258
 1020 360 871 308 781 308 c 256
EndSplineSet
EndChar

StartChar: b
Encoding: 70 98 155
Width: 1113
VWidth: 0
Flags: HW
PickledData: "(dp1
S'segmentType'
p2
S'curve'
p3
sS'b'
(dp4
sS'anchors'
p5
(tsS'lib'
p6
(dp7
sS'unicodes'
p8
(tsS'width'
p9
S'1079'
p10
sS'points'
p11
(dp12
sS'contours'
p13
(dp14
sS'components'
p15
(tsS'y'
S'940'
p16
sS'x'
S'436'
p17
sS'com.typemytype.robofont.layerData'
p18
(dp19
sS'name'
p20
S'b'
s."
LayerCount: 2
Fore
SplineSet
594 -24 m 256
 865 -24 1017 182 1017 510 c 256
 1017 857 850 1045 598 1045 c 256
 464 1045 362 983 296 882 c 257
 296 1473 l 257
 126 1473 l 257
 126 -1 l 257
 258 -1 l 257
 266 166 l 257
 325 49 432 -24 594 -24 c 256
585 97 m 256
 360 97 291 233 291 521 c 256
 291 820 423 925 586 925 c 256
 756 925 844 780 844 516 c 256
 844 239 759 97 585 97 c 256
EndSplineSet
EndChar

StartChar: backslash
Encoding: 64 92 156
Width: 632
VWidth: 0
Flags: HW
LayerCount: 2
Fore
SplineSet
439 -5 m 257
 613 -5 l 257
 216 1464 l 257
 42 1464 l 257
 439 -5 l 257
EndSplineSet
EndChar

StartChar: bar
Encoding: 96 124 157
Width: 416
VWidth: 0
Flags: HW
LayerCount: 2
Fore
SplineSet
123 -197 m 257
 299 -197 l 257
 299 1502 l 257
 123 1502 l 257
 123 -197 l 257
EndSplineSet
EndChar

StartChar: braceleft
Encoding: 95 123 158
Width: 644
VWidth: 0
Flags: HW
PickledData: "(dp1
S'b'
(dp2
sS'anchors'
p3
(tsS'lib'
p4
(dp5
sS'unicodes'
p6
(tsS'width'
p7
S'644'
p8
sS'contours'
p9
(tsS'components'
p10
(tsS'com.typemytype.robofont.layerData'
p11
(dp12
sS'name'
p13
S'braceleft'
p14
s."
LayerCount: 2
Fore
SplineSet
616 -130 m 1
 616 -23 l 1
 374 -23 364 42 364 381 c 0
 364 563 330 676 201 707 c 1
 330 738 364 851 364 1033 c 0
 364 1372 374 1437 616 1437 c 1
 616 1544 l 1
 225.642427113 1544 182 1403.97318234 182 1029 c 0
 182 901 180 775 19 763 c 1
 19 651 l 1
 179.879909274 639.008950862 181.980338625 506.622743255 182 376 c 0
 182 6 230 -130 616 -130 c 1
EndSplineSet
EndChar

StartChar: braceright
Encoding: 97 125 159
Width: 644
VWidth: 0
Flags: HW
PickledData: "(dp1
S'b'
(dp2
sS'anchors'
p3
(tsS'lib'
p4
(dp5
sS'unicodes'
p6
(tsS'width'
p7
S'644'
p8
sS'contours'
p9
(tsS'components'
p10
(tsS'com.typemytype.robofont.layerData'
p11
(dp12
sS'name'
p13
S'braceleft'
p14
s."
LayerCount: 2
Fore
SplineSet
19 -130 m 1
 409.504521979 -130 452.998879591 10.1659101067 452.998879591 385.301851389 c 0
 452.998879591 513.181296173 454.905325444 639.284023669 616 651 c 1
 616 763 l 1
 454.555614117 774.741409882 452.998879591 900.538075599 452.998879591 1030.34131896 c 0
 452.998879591 1404.5772159 408.718140937 1544 19 1544 c 1
 19 1437 l 1
 261 1437 271 1372 271 1033 c 0
 271 851 305 738 434 707 c 1
 305 676 271 563 271 381 c 0
 271 42 261 -23 19 -23 c 1
 19 -130 l 1
EndSplineSet
EndChar

StartChar: bracketleft
Encoding: 63 91 160
Width: 708
VWidth: 0
Flags: HW
LayerCount: 2
Fore
SplineSet
132 -52 m 257
 602 -52 l 257
 602 77 l 257
 307 77 l 257
 307 1352 l 257
 602 1352 l 257
 602 1480 l 257
 132 1480 l 257
 132 -52 l 257
EndSplineSet
EndChar

StartChar: bracketright
Encoding: 65 93 161
Width: 707
VWidth: 0
Flags: HW
LayerCount: 2
Fore
SplineSet
124 -52 m 257
 594 -52 l 257
 594 1480 l 257
 124 1480 l 257
 124 1352 l 257
 419 1352 l 257
 419 77 l 257
 124 77 l 257
 124 -52 l 257
EndSplineSet
EndChar

StartChar: breve
Encoding: 403 728 162
Width: 805
VWidth: 0
Flags: HW
PickledData: "(dp1
S'com.typemytype.robofont.layerData'
p2
(dp3
s."
LayerCount: 2
Fore
SplineSet
400 1225 m 256
 543 1225 673 1300 677 1488 c 257
 539 1488 l 257
 539 1397 498 1349 400 1349 c 256
 303 1349 262 1397 262 1488 c 257
 123 1488 l 257
 127 1300 257 1225 400 1225 c 256
EndSplineSet
EndChar

StartChar: uni0311
Encoding: 411 785 163
Width: 805
VWidth: 0
Flags: HW
PickledData: "(dp1
S'b'
(dp2
sS'anchors'
p3
(tsS'lib'
p4
(dp5
sS'unicodes'
p6
(tsS'width'
p7
S'805'
p8
sS'contours'
p9
(tsS'components'
p10
(tsS'com.typemytype.robofont.layerData'
p11
(dp12
sS'name'
p13
S'uni0311'
p14
s."
LayerCount: 2
Fore
SplineSet
121 1174 m 257
 260 1174 l 257
 260 1265 304 1314 402 1314 c 256
 499 1314 544 1265 544 1174 c 257
 683 1174 l 257
 679 1362 545 1437 402 1437 c 256
 259 1437 125 1362 121 1174 c 257
EndSplineSet
EndChar

StartChar: brokenbar
Encoding: 105 166 164
Width: 416
VWidth: 0
Flags: HW
PickledData: "(dp1
S'com.typemytype.robofont.layerData'
p2
(dp3
s."
LayerCount: 2
Fore
SplineSet
121 -198 m 257
 297 -198 l 257
 297 467 l 257
 121 467 l 257
 121 -198 l 257
121 849 m 257
 297 849 l 257
 297 1504 l 257
 121 1504 l 257
 121 849 l 257
EndSplineSet
EndChar

StartChar: bullet
Encoding: 455 8226 165
Width: 1115
VWidth: 0
Flags: HW
LayerCount: 2
Fore
SplineSet
558 212 m 256
 792 212 947 374 947 618 c 256
 947 862 792 1025 560 1025 c 256
 324 1025 168 862 168 618 c 256
 168 374 324 212 558 212 c 256
EndSplineSet
EndChar

StartChar: c
Encoding: 71 99 166
Width: 999
VWidth: 0
Flags: HW
PickledData: "(dp1
S'com.typemytype.robofont.layerData'
p2
(dp3
s."
LayerCount: 2
Fore
SplineSet
538 -24 m 256
 717 -24 879 50 934 287 c 257
 799 328 l 257
 759 172 674 98 543 98 c 256
 358 98 269 253 269 513 c 256
 269 768 355 924 543 924 c 256
 671 924 754 852 795 695 c 257
 935 730 l 257
 879 973 709 1045 538 1045 c 256
 242 1045 96 818 96 510 c 256
 96 199 244 -24 538 -24 c 256
EndSplineSet
EndChar

StartChar: caron
Encoding: 401 711 168
Width: 838
VWidth: 0
Flags: HW
PickledData: "(dp1
S'b'
(dp2
sS'anchors'
p3
(tsS'lib'
p4
(dp5
sS'unicodes'
p6
(tsS'width'
p7
S'838'
p8
sS'contours'
p9
(tsS'components'
p10
(tsS'com.typemytype.robofont.layerData'
p11
(dp12
sS'name'
p13
S'caron'
p14
s."
LayerCount: 2
Fore
SplineSet
321 1154 m 257
 528 1154 l 257
 701 1474 l 257
 586 1474 l 257
 424 1235 l 257
 263 1474 l 257
 148 1474 l 257
 321 1154 l 257
EndSplineSet
EndChar

StartChar: caron.alt
Encoding: 489 -1 169
Width: 600
VWidth: 0
Flags: HW
AnchorPoint: "caron.alt" 263 1082 mark 0
LayerCount: 2
Fore
SplineSet
500 1125 m 257
 642 1216 642 1355 647 1513 c 257
 647 1598 l 257
 427 1598 l 257
 427 1408 l 257
 521 1395 l 257
 518 1274 466 1207 441 1187 c 257
 500 1125 l 257
EndSplineSet
EndChar

StartChar: cedilla
Encoding: 123 184 174
Width: 435
VWidth: 0
Flags: HW
LayerCount: 2
Fore
SplineSet
210 -491 m 256
 317 -491 362 -382 362 -290 c 258
 362 -99 l 257
 135 -99 l 257
 135 -275 l 257
 242 -275 l 257
 242 -385 233 -414 204 -414 c 256
 194 -414 180 -409 165 -405 c 257
 165 -482 l 257
 179 -488 196 -491 210 -491 c 256
EndSplineSet
EndChar

StartChar: cent
Encoding: 101 162 175
Width: 982
VWidth: 0
Flags: HW
PickledData: "(dp1
S'com.typemytype.robofont.layerData'
p2
(dp3
s."
LayerCount: 2
Fore
SplineSet
485 -208 m 257
 596 -208 l 257
 596 1253 l 257
 485 1253 l 257
 485 -208 l 257
EndSplineSet
Refer: 166 99 N 1 0 0 1 0 0 2
EndChar

StartChar: circumflex
Encoding: 400 710 176
Width: 838
VWidth: 0
Flags: HW
PickledData: "(dp1
S'com.typemytype.robofont.layerData'
p2
(dp3
s."
LayerCount: 2
Fore
SplineSet
135 1154 m 257
 250 1154 l 257
 411 1393 l 257
 573 1154 l 257
 688 1154 l 257
 515 1474 l 257
 308 1474 l 257
 135 1154 l 257
EndSplineSet
EndChar

StartChar: colon
Encoding: 30 58 177
Width: 482
VWidth: 0
Flags: HW
LayerCount: 2
Fore
SplineSet
142 171 m 257
 349 171 l 257
 349 395 l 257
 142 395 l 257
 142 171 l 257
142 808 m 257
 349 808 l 257
 349 1033 l 257
 142 1033 l 257
 142 808 l 257
EndSplineSet
EndChar

StartChar: comma
Encoding: 16 44 178
Width: 445
VWidth: 0
Flags: HW
LayerCount: 2
Fore
SplineSet
171 -270 m 257
 313 -183 325 -56 328 118 c 257
 328 227 l 257
 88 227 l 257
 88 17 l 257
 192 4 l 257
 190 -100 135 -172 107 -196 c 257
 171 -270 l 257
EndSplineSet
EndChar

StartChar: uni0326
Encoding: 413 806 179
Width: 409
VWidth: 0
Flags: HW
LayerCount: 2
Fore
SplineSet
186 -576 m 257
 269 -544 321 -429 321 -278 c 258
 321 -124 l 257
 93 -124 l 257
 93 -321 l 257
 207 -326 l 257
 206 -388 178 -488 130 -526 c 257
 186 -576 l 257
EndSplineSet
EndChar

StartChar: uni0312
Encoding: 412 786 180
Width: 600
VWidth: 0
Flags: HW
LayerCount: 2
Fore
SplineSet
202 1199 m 257
 442 1199 l 257
 442 1409 l 257
 338 1422 l 257
 340 1526 395 1599 423 1623 c 257
 360 1697 l 257
 218 1610 205 1482 202 1308 c 257
 202 1199 l 257
EndSplineSet
EndChar

StartChar: copyright
Encoding: 108 169 181
Width: 1702
VWidth: 0
Flags: HW
PickledData: "(dp1
S'b'
(dp2
sS'anchors'
p3
(tsS'lib'
p4
(dp5
sS'unicodes'
p6
(tsS'width'
p7
S'1702'
p8
sS'contours'
p9
(tsS'components'
p10
(tsS'com.typemytype.robofont.layerData'
p11
(dp12
sS'name'
p13
S'copyright'
p14
s."
LayerCount: 2
Fore
SplineSet
857 325 m 256
 996 325 1096 393 1139 542 c 257
 1061 569 l 257
 1028 466 973 409 861 409 c 256
 685 409 620 525 620 780 c 256
 620 1035 685 1150 861 1150 c 256
 973 1150 1028 1094 1061 991 c 257
 1139 1018 l 257
 1096 1166 996 1235 857 1235 c 256
 643 1235 524 1104 524 780 c 256
 524 456 643 325 857 325 c 256
849 106 m 256
 480 106 189 371 189 773 c 256
 189 1166 481 1444 850 1444 c 256
 1220 1444 1513 1136 1513 773 c 256
 1513 411 1219 106 849 106 c 256
850 53 m 256
 1251 53 1579 375 1579 774 c 256
 1579 1175 1251 1497 850 1497 c 256
 451 1497 123 1205 123 774 c 256
 123 335 451 53 850 53 c 256
EndSplineSet
EndChar

StartChar: currency
Encoding: 103 164 182
Width: 1068
VWidth: 0
Flags: HW
LayerCount: 2
Fore
SplineSet
190 197 m 257
 324 350 l 257
 379 309 449 284 535 284 c 256
 641 284 722 322 780 381 c 257
 934 246 l 257
 990 309 l 257
 831 449 l 257
 866 510 883 581 883 653 c 256
 883 740 857 828 805 896 c 257
 942 1052 l 257
 878 1108 l 257
 745 956 l 257
 691 998 620 1023 534 1023 c 256
 427 1023 345 985 287 926 c 257
 134 1061 l 257
 78 997 l 257
 236 859 l 257
 200 799 183 727 183 656 c 256
 183 568 210 479 264 410 c 257
 126 253 l 257
 190 197 l 257
536 385 m 256
 385 385 303 516 303 655 c 256
 303 794 386 925 535 925 c 256
 684 925 769 796 769 658 c 256
 769 518 681 385 536 385 c 256
EndSplineSet
EndChar

StartChar: d
Encoding: 72 100 183
Width: 1111
VWidth: 0
Flags: HW
PickledData: "(dp1
S'segmentType'
p2
S'curve'
p3
sS'b'
(dp4
sS'anchors'
p5
(tsS'lib'
p6
(dp7
sS'unicodes'
p8
(tsS'width'
p9
S'1077'
p10
sS'points'
p11
(dp12
sS'contours'
p13
(dp14
sS'components'
p15
(tsS'y'
S'940'
p16
sS'x'
S'407'
p17
sS'com.typemytype.robofont.layerData'
p18
(dp19
sS'name'
p20
S'b'
s."
AnchorPoint: "caron.alt" 947 1023 basechar 0
LayerCount: 2
Fore
SplineSet
520 -24 m 256
 682 -24 786 51 845 166 c 257
 853 2 l 257
 985 2 l 257
 985 1476 l 257
 815 1476 l 257
 815 891 l 257
 751 987 652 1045 522 1045 c 256
 268 1045 96 863 96 510 c 256
 96 182 249 -24 520 -24 c 256
547.532528944 96.5360918705 m 0
 355.724802562 96.5360918705 268 234.842739072 268 518 c 256
 268 782.929933192 357.391406396 924.027459942 533.48969181 924.027459942 c 0
 695.366278984 924.027459942 823 816.275425025 823 521 c 256
 823 247.730398338 737.547293364 96.5360918705 547.532528944 96.5360918705 c 0
EndSplineSet
EndChar

StartChar: dagger
Encoding: 453 8224 184
Width: 1118
VWidth: 0
Flags: HW
LayerCount: 2
Fore
SplineSet
477 0 m 257
 655 0 l 257
 655 950 l 257
 988 950 l 257
 988 1086 l 257
 655 1086 l 257
 655 1464 l 257
 477 1464 l 257
 477 1086 l 257
 129 1086 l 257
 129 950 l 257
 477 950 l 257
 477 0 l 257
EndSplineSet
EndChar

StartChar: daggerdbl
Encoding: 454 8225 185
Width: 1117
VWidth: 0
Flags: HW
LayerCount: 2
Fore
SplineSet
477 0 m 257
 655 0 l 257
 655 476 l 257
 987 476 l 257
 987 611 l 257
 655 611 l 257
 655 950 l 257
 988 950 l 257
 988 1086 l 257
 655 1086 l 257
 655 1464 l 257
 477 1464 l 257
 477 1086 l 257
 129 1086 l 257
 129 950 l 257
 477 950 l 257
 477 611 l 257
 130 611 l 257
 130 476 l 257
 477 476 l 257
 477 0 l 257
EndSplineSet
EndChar

StartChar: uni030F
Encoding: 410 783 186
Width: 745
VWidth: 0
Flags: HW
PickledData: "(dp1
S'b'
(dp2
sS'anchors'
p3
(tsS'lib'
p4
(dp5
sS'unicodes'
p6
(tsS'width'
p7
S'745'
p8
sS'contours'
p9
(tsS'components'
p10
(tsS'com.typemytype.robofont.layerData'
p11
(dp12
sS'name'
p13
S'uni030F'
p14
s."
LayerCount: 2
Fore
SplineSet
329 1153 m 257
 416 1153 l 257
 298 1481 l 257
 66 1481 l 257
 329 1153 l 257
629 1153 m 257
 708 1153 l 257
 619 1481 l 257
 394 1481 l 257
 629 1153 l 257
EndSplineSet
EndChar

StartChar: dcroat
Encoding: 212 273 188
Width: 1137
VWidth: 0
Flags: HW
PickledData: "(dp1
S'b'
(dp2
sS'anchors'
p3
(tsS'lib'
p4
(dp5
sS'unicodes'
p6
(tsS'width'
p7
S'1137'
p8
sS'contours'
p9
(tsS'components'
p10
(tsS'com.typemytype.robofont.layerData'
p11
(dp12
sS'name'
p13
S'dcroat'
p14
s."
LayerCount: 2
Fore
SplineSet
580 1191 m 257
 1112 1191 l 257
 1112 1294 l 257
 580 1294 l 257
 580 1191 l 257
EndSplineSet
Refer: 183 100 N 1 0 0 1 0 0 2
EndChar

StartChar: degree
Encoding: 115 176 189
Width: 483
VWidth: 0
Flags: HW
PickledData: "(dp1
S'com.typemytype.robofont.layerData'
p2
(dp3
s."
LayerCount: 2
Fore
SplineSet
240 1124 m 256
 154 1124 108 1193 108 1267 c 256
 108 1341 154 1410 240 1410 c 256
 326 1410 372 1341 372 1267 c 256
 372 1193 326 1124 240 1124 c 256
240 1024 m 256
 396 1024 489 1139 489 1267 c 256
 489 1395 396 1510 240 1510 c 256
 84 1510 -9 1395 -9 1267 c 256
 -9 1139 84 1024 240 1024 c 256
EndSplineSet
EndChar

StartChar: dieresis
Encoding: 107 168 190
Width: 860
VWidth: 0
Flags: HW
PickledData: "(dp1
S'com.typemytype.robofont.layerData'
p2
(dp3
s."
LayerCount: 2
Fore
SplineSet
111 1180 m 257
 305 1180 l 257
 305 1378 l 257
 111 1378 l 257
 111 1180 l 257
518 1180 m 257
 712 1180 l 257
 712 1378 l 257
 518 1378 l 257
 518 1180 l 257
EndSplineSet
EndChar

StartChar: divide
Encoding: 186 247 191
Width: 1024
VWidth: 0
Flags: HW
LayerCount: 2
Fore
SplineSet
369 171 m 257
 577 171 l 257
 577 389 l 257
 369 389 l 257
 369 171 l 257
97 541 m 257
 847 541 l 257
 847 657 l 257
 97 657 l 257
 97 541 l 257
369 804 m 257
 577 804 l 257
 577 1024 l 257
 369 1024 l 257
 369 804 l 257
EndSplineSet
EndChar

StartChar: dollar
Encoding: 8 36 192
Width: 1216
VWidth: 0
Flags: HW
PickledData: "(dp1
S'segmentType'
p2
S'curve'
p3
sS'b'
(dp4
sS'anchors'
p5
(tsS'lib'
p6
(dp7
sS'unicodes'
p8
(tsS'width'
p9
S'1216'
p10
sS'points'
p11
(dp12
sS'contours'
p13
(dp14
sS'components'
p15
(tsS'y'
S'-24'
p16
sS'x'
S'642'
p17
sS'com.typemytype.robofont.layerData'
p18
(dp19
sS'name'
p20
S'dollar'
p21
s."
LayerCount: 2
Fore
SplineSet
593 -204 m 257
 699 -204 l 257
 699 1672 l 257
 593 1672 l 257
 593 -204 l 257
EndSplineSet
Refer: 94 83 N 1 0 0 1 0 0 2
EndChar

StartChar: dotaccent
Encoding: 404 729 193
Width: 434
VWidth: 0
Flags: HW
PickledData: "(dp1
S'b'
(dp2
sS'anchors'
p3
(tsS'lib'
p4
(dp5
sS'unicodes'
p6
(tsS'width'
p7
S'434'
p8
sS'contours'
p9
(tsS'components'
p10
(tsS'com.typemytype.robofont.layerData'
p11
(dp12
sS'name'
p13
S'dotaccent'
p14
s."
LayerCount: 2
Fore
SplineSet
130 1232 m 257
 304 1232 l 257
 304 1457 l 257
 130 1457 l 257
 130 1232 l 257
EndSplineSet
EndChar

StartChar: dotlessi
Encoding: 244 305 194
Width: 429
VWidth: 0
Flags: HW
LayerCount: 2
Fore
SplineSet
139 0 m 257
 309 0 l 257
 309 1023 l 257
 139 1023 l 257
 139 0 l 257
EndSplineSet
EndChar

StartChar: e
Encoding: 73 101 195
Width: 1027
VWidth: 0
Flags: HW
PickledData: "(dp1
S'com.typemytype.robofont.layerData'
p2
(dp3
s."
AnchorPoint: "ogonek" 640 0 basechar 0
LayerCount: 2
Fore
SplineSet
551 -24 m 256
 727 -23 884 78 931 256 c 257
 804 285 l 257
 769 181 687 98 548 98 c 256
 347 98 267 283 266 487 c 257
 950 487 l 261
 952 504 953 555 953 564 c 256
 953 837 827 1045 542 1045 c 256
 257 1045 96 832 96 512 c 256
 96 224 232 -24 551 -24 c 256
266 599 m 257
 277 758 355 924 539 924 c 256
 722 924 792 804 794 599 c 257
 266 599 l 257
EndSplineSet
EndChar

StartChar: eight
Encoding: 28 56 203
Width: 1194
VWidth: 0
Flags: HW
LayerCount: 2
Fore
SplineSet
121.95849797 357.243636239 m 0
 121.95849797 155.177350185 293.67792022 -25 585 -25 c 256
 901 -25 1078 160 1078 365 c 256
 1078 506 1051 634 796 757 c 257
 885 789 1069 903 1069 1099 c 256
 1069 1375 855 1490 610 1490 c 256
 372 1490 138 1379 138 1101 c 256
 138 925 281 806 394 753 c 257
 192.816589833 635.643010736 121.95849797 505.642520443 121.95849797 357.243636239 c 0
600 117 m 256
 413.977784094 118.022100087 311.807479807 235.662501804 311.807479807 376.348980639 c 0
 311.807479807 490.968759969 370.832306832 611.008191008 517 702 c 257
 732 640 899 586 899 368 c 256
 899 208 747 117 600 117 c 256
666 806 m 257
 461 871 320 914 320 1104 c 256
 320 1277 458 1350 610 1350 c 256
 771 1350 889 1266 889 1101 c 256
 889 936 759 853 666 806 c 257
EndSplineSet
EndChar

StartChar: emdash
Encoding: 446 8212 206
Width: 2048
VWidth: 0
Flags: HW
LayerCount: 2
Fore
SplineSet
135 318 m 257
 1913 318 l 257
 1913 420 l 257
 135 420 l 257
 135 318 l 257
EndSplineSet
EndChar

StartChar: emptyset
Encoding: 468 8709 207
Width: 1702
VWidth: 0
Flags: HW
LayerCount: 2
Fore
SplineSet
265 -65 m 257
 413 109 l 257
 535 23 686 -25 850 -25 c 256
 1251 -25 1579 297 1579 696 c 256
 1579 902 1492 1087 1354 1218 c 257
 1506 1398 l 257
 1435 1454 l 257
 1285 1276 l 257
 1164 1366 1013 1419 850 1419 c 256
 451 1419 123 1127 123 696 c 256
 123 471 209 287 347 161 c 257
 201 -12 l 257
 265 -65 l 257
409 235 m 257
 296 346 228 505 228 695 c 256
 228 1062 496 1330 850 1330 c 256
 992 1330 1121 1282 1224 1203 c 257
 409 235 l 257
849 64 m 256
 706 64 577 106 474 181 c 257
 1291 1144 l 257
 1405 1027 1474 866 1474 695 c 256
 1474 358 1204 64 849 64 c 256
EndSplineSet
EndChar

StartChar: endash
Encoding: 445 8211 208
Width: 1024
VWidth: 0
Flags: HW
LayerCount: 2
Fore
SplineSet
135 318 m 257
 889 318 l 257
 889 420 l 257
 135 420 l 257
 135 318 l 257
EndSplineSet
EndChar

StartChar: eng
Encoding: 270 331 209
Width: 1107
VWidth: 0
Flags: HW
LayerCount: 2
Fore
SplineSet
537 -410 m 257
 820 -408 987 -262 987 -23 c 258
 987 195 l 257
 817 195 l 257
 817 -23 l 258
 817 -168 741 -281 538 -282 c 257
 537 -410 l 257
EndSplineSet
Refer: 278 110 N 1 0 0 1 0 0 2
EndChar

StartChar: equal
Encoding: 33 61 211
Width: 820
VWidth: 0
Flags: HW
PickledData: "(dp1
S'com.typemytype.robofont.layerData'
p2
(dp3
s."
LayerCount: 2
Fore
SplineSet
135 288 m 257
 685 288 l 257
 685 406 l 257
 135 406 l 257
 135 288 l 257
135 537 m 257
 685 537 l 257
 685 656 l 257
 135 656 l 257
 135 537 l 257
EndSplineSet
EndChar

StartChar: estimated
Encoding: 466 8494 212
Width: 1195
VWidth: 0
Flags: HW
LayerCount: 2
Fore
SplineSet
671 -20 m 256
 878 -20 1013 70 1113 188 c 257
 1061 239 l 257
 963 134 851 53 671 53 c 256
 441 53 319 245 318 521 c 257
 1121 521 l 257
 1121 869 973 1102 653 1102 c 256
 330 1102 100 861 100 541 c 256
 100 221 288 -20 671 -20 c 256
320 601 m 257
 335 863 486 1042 659 1042 c 256
 868 1042 1009 836 1009 601 c 257
 320 601 l 257
EndSplineSet
EndChar

StartChar: eth
Encoding: 179 240 213
Width: 1053
VWidth: 0
Flags: HW
PickledData: "(dp1
S'segmentType'
p2
S'line'
p3
sS'b'
(dp4
sS'anchors'
p5
(tsS'lib'
p6
(dp7
sS'unicodes'
p8
(tsS'width'
p9
S'1053'
p10
sS'points'
p11
(dp12
sS'contours'
p13
(dp14
sS'components'
p15
(tsS'y'
S'1026'
p16
sS'x'
S'421'
p17
sS'com.typemytype.robofont.layerData'
p18
(dp19
sS'name'
p20
S'eth'
p21
s."
LayerCount: 2
Fore
SplineSet
82 454 m 256
 82 207.440968836 226.572893607 -24.003139551 520.019848849 -24.003139551 c 0
 840.552112444 -24.003139551 972 213.661554356 972 529 c 256
 972 775 914 1038 745 1216 c 257
 927 1335 l 257
 864 1424 l 257
 660 1291 l 257
 541 1378 380 1432 169 1432 c 257
 169 1320 l 257
 327 1320 448 1278 541 1213 c 257
 378 1107 l 257
 441 1018 l 257
 627 1140 l 257
 731 1032 781 891 796 773 c 257
 722.840258568 864.943999368 617.425682166 908.01703666 506.813253111 908.01703666 c 0
 289.982317294 908.01703666 82 747.569222154 82 454 c 256
528.707542977 105.933893741 m 0
 371.312779095 105.933893741 252 228.909913814 252 442 c 256
 252 652 372 776 523 776 c 256
 625 776 710 728 802 628 c 257
 808 602 809 535 809 511 c 256
 809 282.548425227 727.821234097 105.933893741 528.707542977 105.933893741 c 0
EndSplineSet
EndChar

StartChar: exclam
Encoding: 5 33 214
Width: 428
VWidth: 0
Flags: HW
PickledData: "(dp1
S'com.typemytype.robofont.layerData'
p2
(dp3
s."
LayerCount: 2
Fore
SplineSet
136 0 m 257
 309 0 l 257
 309 193 l 257
 136 193 l 257
 136 0 l 257
187 335 m 257
 257 335 l 257
 325 1464 l 257
 116 1464 l 257
 187 335 l 257
EndSplineSet
EndChar

StartChar: f
Encoding: 74 102 216
Width: 630
VWidth: 0
Flags: HW
PickledData: "(dp1
S'segmentType'
p2
S'line'
p3
sS'b'
(dp4
sS'anchors'
p5
(tsS'lib'
p6
(dp7
sS'unicodes'
p8
(tsS'width'
p9
S'623'
p10
sS'points'
p11
(dp12
sS'contours'
p13
(dp14
sS'components'
p15
(tsS'y'
S'1368'
p16
sS'x'
S'492'
p17
sS'com.typemytype.robofont.layerData'
p18
(dp19
sS'name'
p20
S'f'
s."
LayerCount: 2
Fore
SplineSet
212 0 m 1
 382 0 l 1
 382 897 l 1
 589 897 l 1
 589 1023 l 1
 382 1023 l 1
 381.948999482 1159.71391049 l 2
 381.948999482 1299.13705758 396.990681342 1344 484 1344 c 0
 522 1344 559 1332 591 1316 c 1
 634 1426 l 1
 599 1449 529 1474 465 1474 c 0
 288 1474 212 1385 212 1139 c 2
 212 1023 l 1
 38 1023 l 1
 38 897 l 1
 212 897 l 1
 212 0 l 1
EndSplineSet
EndChar

StartChar: five
Encoding: 25 53 218
Width: 1196
VWidth: 0
Flags: HW
PickledData: "(dp1
S'segmentType'
p2
S'line'
p3
sS'b'
(dp4
sS'anchors'
p5
(tsS'lib'
p6
(dp7
sS'unicodes'
p8
(tsS'width'
p9
S'1163'
p10
sS'points'
p11
(dp12
sS'contours'
p13
(dp14
sS'components'
p15
(tsS'y'
S'928'
p16
sS'x'
S'528'
p17
sS'com.typemytype.robofont.layerData'
p18
(dp19
sS'name'
p20
S'five'
p21
s."
LayerCount: 2
Fore
SplineSet
610 -24 m 0
 909 -24 1101 174 1101 461 c 0
 1101 709 955 928 630 928 c 0
 564.654110745 928 470.618586265 912.654381159 387.132374318 869.973464997 c 1
 452 1312 l 1
 987 1312 l 1
 987 1464 l 1
 296 1464 l 1
 200 744 l 1
 310 674 l 1
 407 751 512 785 622 785 c 0
 820 785 924 629 924 453 c 0
 924 251 790 115 601 115 c 0
 460 115 331 207 258 368 c 1
 110 309 l 1
 202 72 385 -24 610 -24 c 0
EndSplineSet
EndChar

StartChar: florin
Encoding: 322 402 220
Width: 1019
VWidth: 0
Flags: HW
LayerCount: 2
Fore
SplineSet
402 -169 m 257
 630 807 l 257
 843 807 l 257
 860 893 l 257
 648 893 l 257
 733 1254 l 258
 756 1351 775 1451 865 1451 c 256
 910 1451 935 1402 935 1300 c 257
 1084 1300 l 257
 1084 1487 979 1535 858 1535 c 256
 670 1535 591 1402 552 1241 c 258
 469 893 l 257
 307 893 l 257
 290 807 l 257
 455 807 l 257
 226 -168 l 257
 402 -169 l 257
EndSplineSet
EndChar

StartChar: foundryicon
Encoding: 490 -1 221
Width: 1347
VWidth: 0
Flags: HW
LayerCount: 2
Fore
SplineSet
485 405 m 257
 485 672 l 257
 591 672 l 257
 761 523 l 257
 761 672 l 257
 867 672 l 257
 867 405 l 257
 761 405 l 257
 591 552 l 257
 591 405 l 257
 485 405 l 257
280 2 m 257
 669 278 l 257
 1066 2 l 257
 922 461 l 257
 1313 755 l 257
 828 755 l 257
 669 1215 l 257
 519 755 l 257
 34 755 l 257
 423 461 l 257
 280 2 l 257
EndSplineSet
EndChar

StartChar: four
Encoding: 24 52 222
Width: 1222
VWidth: 0
Flags: HW
PickledData: "(dp1
S'com.typemytype.robofont.layerData'
p2
(dp3
s."
LayerCount: 2
Fore
SplineSet
754 0 m 257
 921 0 l 257
 921 353 l 257
 1167 353 l 257
 1167 484 l 257
 920 484 l 257
 920 1464 l 257
 677 1464 l 257
 105 481 l 257
 105 353 l 257
 754 353 l 257
 754 0 l 257
284 484 m 257
 754 1327 l 257
 754 484 l 257
 284 484 l 257
EndSplineSet
EndChar

StartChar: uni2074
Encoding: 461 8308 223
Width: 919
VWidth: 0
Flags: HW
LayerCount: 2
Fore
SplineSet
498 825 m 261
 632 825 l 261
 632 965 l 261
 736 965 l 261
 736 1063 l 261
 632 1063 l 261
 632 1518 l 261
 459 1518 l 261
 151 1045 l 261
 151 965 l 261
 498 965 l 261
 498 825 l 261
288 1063 m 261
 498 1393 l 261
 498 1063 l 261
 288 1063 l 261
EndSplineSet
EndChar

StartChar: fraction
Encoding: 460 8260 224
Width: 1493
VWidth: 0
Flags: HW
LayerCount: 2
Fore
SplineSet
175 -14 m 257
 1410 1415 l 257
 1318 1494 l 257
 82 65 l 257
 175 -14 l 257
EndSplineSet
EndChar

StartChar: g
Encoding: 75 103 225
Width: 1121
VWidth: 0
Flags: HW
PickledData: "(dp1
S'segmentType'
p2
S'line'
p3
sS'b'
(dp4
sS'anchors'
p5
(tsS'lib'
p6
(dp7
sS'unicodes'
p8
(tsS'width'
p9
S'1074'
p10
sS'points'
p11
(dp12
sS'contours'
p13
(dp14
sS'components'
p15
(tsS'y'
S'-429'
p16
sS'x'
S'805'
p17
sS'com.typemytype.robofont.layerData'
p18
(dp19
sS'name'
p20
S'g'
s."
LayerCount: 2
Fore
SplineSet
543.611767171 -448.009163188 m 0
 829.020204905 -448.009163188 997 -281.538140237 997 34 c 258
 997 1023 l 257
 852 1023 l 257
 836 860 l 257
 772 974 666 1045 522 1045 c 256
 269 1045 86 860 86 510 c 256
 86 186 253 -24 524 -24 c 256
 668 -24 766 34 828 127 c 257
 828 33 l 258
 828 -188.009716266 750.081812912 -320.013908 543.813896498 -320.013908 c 0
 395.424223286 -320.013908 311.378347867 -267.229893627 245 -185 c 257
 153 -279 l 257
 223.565875443 -367.455815696 360.314922093 -448.009163188 543.611767171 -448.009163188 c 0
533 97 m 256
 359 97 258 240 258 516 c 256
 258 775 363 925 532 925 c 256
 699 925 828 828 828 505 c 256
 828 227 753 97 533 97 c 256
EndSplineSet
EndChar

StartChar: germandbls
Encoding: 162 223 231
Width: 1199
VWidth: 0
Flags: HW
PickledData: "(dp1
S'b'
(dp2
sS'anchors'
p3
(tsS'lib'
p4
(dp5
sS'unicodes'
p6
(tsS'width'
p7
S'1199'
p8
sS'contours'
p9
(tsS'components'
p10
(tsS'com.typemytype.robofont.layerData'
p11
(dp12
sS'name'
p13
S'germandbls'
p14
s."
LayerCount: 2
Fore
SplineSet
948.00884083 1200.67802681 m 0
 948.00884083 1365.03377341 828.967505741 1492.02440208 562.484505464 1492.02440208 c 0
 338.38610487 1492.02440208 119 1371.19380775 119 1151 c 258
 119 0 l 257
 295 0 l 257
 295 1138 l 258
 295 1285 420 1368 565 1368 c 256
 716 1367 785 1306 785 1209 c 256
 785 995.154208866 436.98704399 1017.65908086 436.98704399 813.956489726 c 0
 436.98704399 580.490800789 946.070178782 563.55633006 946.070178782 338.593287646 c 0
 946.070178782 202.197258363 831.63536427 141 441 141 c 257
 441 0 l 257
 481 0 l 258
 1029.14768372 0 1123.00145162 112.973627429 1123.00145162 336.92276474 c 0
 1123.00145162 653.170845814 610.9869691 700.842943486 610.9869691 821.941009399 c 0
 610.9869691 886.686976684 948.00884083 938.768113964 948.00884083 1200.67802681 c 0
EndSplineSet
EndChar

StartChar: grave
Encoding: 68 96 232
Width: 496
VWidth: 0
Flags: HW
LayerCount: 2
Fore
SplineSet
356 1154 m 257
 469 1155 l 257
 265 1474 l 257
 32 1474 l 257
 356 1154 l 257
EndSplineSet
EndChar

StartChar: greater
Encoding: 34 62 233
Width: 1051
VWidth: 0
Flags: HW
LayerCount: 2
Fore
SplineSet
51 91 m 257
 1000 444 l 257
 1000 597 l 257
 51 963 l 257
 51 797 l 257
 808 529 l 257
 51 273 l 257
 51 91 l 257
EndSplineSet
EndChar

StartChar: greaterequal
Encoding: 481 8805 234
Width: 1051
VWidth: 0
Flags: HW
LayerCount: 2
Fore
SplineSet
51 241 m 257
 1000 538 l 257
 1000 691 l 257
 51 995 l 257
 51 829 l 257
 808 623 l 257
 51 415 l 257
 51 241 l 257
54 0 m 257
 1014 0 l 257
 1014 121 l 257
 54 121 l 257
 54 0 l 257
EndSplineSet
EndChar

StartChar: guillemotleft
Encoding: 110 171 235
Width: 946
VWidth: 0
Flags: HW
PickledData: "(dp1
S'b'
(dp2
sS'anchors'
p3
(tsS'lib'
p4
(dp5
sS'unicodes'
p6
(tsS'width'
p7
S'946'
p8
sS'contours'
p9
(tsS'components'
p10
(tsS'com.typemytype.robofont.layerData'
p11
(dp12
sS'name'
p13
S'guillemotleft'
p14
s."
LayerCount: 2
Fore
SplineSet
478 242 m 257
 478 411 l 257
 147 650 l 257
 478 887 l 257
 478 1057 l 257
 29 768 l 257
 29 531 l 257
 478 242 l 257
937 242 m 257
 937 411 l 257
 606 650 l 257
 937 887 l 257
 937 1057 l 257
 488 768 l 257
 488 531 l 257
 937 242 l 257
EndSplineSet
EndChar

StartChar: guillemotright
Encoding: 126 187 236
Width: 946
VWidth: 0
Flags: HW
PickledData: "(dp1
S'com.typemytype.robofont.layerData'
p2
(dp3
s."
LayerCount: 2
Fore
SplineSet
29 242 m 257
 478 531 l 257
 478 768 l 257
 29 1057 l 257
 29 887 l 257
 360 650 l 257
 29 411 l 257
 29 242 l 257
488 242 m 257
 937 531 l 257
 937 768 l 257
 488 1057 l 257
 488 887 l 257
 819 650 l 257
 488 411 l 257
 488 242 l 257
EndSplineSet
EndChar

StartChar: guilsinglleft
Encoding: 458 8249 237
Width: 528
VWidth: 0
Flags: HW
LayerCount: 2
Fore
SplineSet
460 243 m 257
 460 412 l 257
 166 650 l 257
 460 888 l 257
 460 1058 l 257
 48 769 l 257
 48 532 l 257
 460 243 l 257
EndSplineSet
EndChar

StartChar: guilsinglright
Encoding: 459 8250 238
Width: 528
VWidth: 0
Flags: HW
LayerCount: 2
Fore
SplineSet
46 243 m 257
 458 532 l 257
 458 769 l 257
 46 1058 l 257
 46 888 l 257
 340 650 l 257
 46 412 l 257
 46 243 l 257
EndSplineSet
EndChar

StartChar: h
Encoding: 76 104 239
Width: 1106
VWidth: 0
Flags: HW
PickledData: "(dp1
S'b'
(dp2
sS'anchors'
p3
(tsS'com.typemytype.robofont.layerData'
p4
(dp5
sS'unicodes'
p6
(tsS'com.typemytype.robofont.guides'
p7
(tsS'y'
S'940'
p8
sS'width'
p9
S'1086'
p10
sS'points'
p11
(dp12
sS'contours'
p13
(dp14
sS'components'
p15
(tsS'lib'
p16
(dp17
sS'segmentType'
p18
S'line'
p19
sS'x'
S'783'
p20
sS'name'
p21
S'h'
s."
LayerCount: 2
Fore
SplineSet
126 0 m 257
 297 0 l 257
 297 538 l 257
 305 750 379 924 607 924 c 256
 772 924 818 808 818 603 c 258
 818 0 l 257
 988 0 l 257
 988 588 l 258
 988 794 960 1044 637 1044 c 256
 478 1044 366 981 297 866 c 257
 297 1474 l 257
 126 1474 l 257
 126 0 l 257
EndSplineSet
EndChar

StartChar: hbar
Encoding: 234 295 240
Width: 1117
VWidth: 0
Flags: HW
PickledData: "(dp1
S'b'
(dp2
sS'anchors'
p3
(tsS'lib'
p4
(dp5
sS'unicodes'
p6
(tsS'width'
p7
S'1117'
p8
sS'contours'
p9
(tsS'components'
p10
(tsS'com.typemytype.robofont.layerData'
p11
(dp12
sS'name'
p13
S'hbar'
p14
s."
LayerCount: 2
Fore
SplineSet
-5 1191 m 257
 527 1191 l 257
 527 1294 l 257
 -5 1294 l 257
 -5 1191 l 257
EndSplineSet
Refer: 239 104 N 1 0 0 1 0 0 2
EndChar

StartChar: hungarumlaut
Encoding: 408 733 242
Width: 745
VWidth: 0
Flags: HW
LayerCount: 2
Fore
SplineSet
71 1133 m 257
 150 1133 l 257
 385 1461 l 257
 160 1461 l 257
 71 1133 l 257
363 1133 m 257
 450 1133 l 257
 713 1461 l 257
 481 1461 l 257
 363 1133 l 257
EndSplineSet
EndChar

StartChar: hyphen
Encoding: 17 45 243
Width: 724
VWidth: 0
Flags: HW
LayerCount: 2
Fore
SplineSet
100 384 m 257
 600 384 l 257
 600 517 l 257
 100 517 l 257
 100 384 l 257
EndSplineSet
EndChar

StartChar: i
Encoding: 77 105 244
Width: 442
VWidth: 0
Flags: HW
PickledData: "(dp1
S'com.typemytype.robofont.layerData'
p2
(dp3
s."
LayerCount: 2
Fore
SplineSet
142 0 m 257
 312 0 l 257
 312 1023 l 257
 142 1023 l 257
 142 0 l 257
140 1232 m 257
 314 1232 l 257
 314 1457 l 257
 140 1457 l 257
 140 1232 l 257
EndSplineSet
EndChar

StartChar: infinity
Encoding: 476 8734 254
Width: 1617
VWidth: 0
Flags: HW
LayerCount: 2
Fore
SplineSet
1570 737 m 256
 1570 948.2171918 1439.23686037 1161.00843069 1178.3543635 1161.00843069 c 0
 1022.49524739 1161.00843069 889.578372047 1073.12301386 815 918 c 257
 733 1075 596 1165 440 1165 c 256
 180 1165 50 946 50 729 c 256
 50 513 177 299 432 299 c 256
 583 299 721 391 811 553 c 257
 890 399 1025 310 1176 310 c 256
 1439 310 1570 524 1570 737 c 256
442 468 m 256
 274 468 190 602 190 736 c 256
 190 869 272 1000 441 1000 c 256
 576 1000 692 880 761 669 c 257
 680 541 564 468 442 468 c 256
1177 474 m 256
 1051 474 937 594 865 804 c 257
 937 925 1046 992 1166 992 c 256
 1317 992 1427 883 1427 730 c 256
 1427 601 1344 474 1177 474 c 256
EndSplineSet
EndChar

StartChar: integral
Encoding: 477 8747 255
Width: 783
VWidth: 0
Flags: HW
LayerCount: 2
Fore
SplineSet
183 -242 m 256
 360 -242 445 -153 469 93 c 258
 571 1145 l 258
 586 1296 603 1344 693 1344 c 256
 731 1344 767 1332 797 1316 c 257
 851 1426 l 257
 818 1449 751 1474 687 1474 c 256
 510 1474 425 1385 401 1139 c 258
 299 87 l 258
 284 -64 267 -113 177 -113 c 256
 139 -113 103 -100 73 -84 c 257
 19 -195 l 257
 52 -217 119 -242 183 -242 c 256
EndSplineSet
EndChar

StartChar: j
Encoding: 78 106 258
Width: 494
VWidth: 0
Flags: HW
PickledData: "(dp1
S'b'
(dp2
sS'anchors'
p3
(tsS'lib'
p4
(dp5
sS'unicodes'
p6
(tsS'width'
p7
S'482'
p8
sS'contours'
p9
(tsS'components'
p10
(tsS'com.typemytype.robofont.layerData'
p11
(dp12
sS'name'
p13
S'j'
s."
LayerCount: 2
Fore
SplineSet
138 -347 m 256
 322 -347 376 -252 376 -24 c 258
 376 1023 l 257
 206 1023 l 257
 206 -91 l 258
 206 -180 168 -207 111 -207 c 256
 65 -207 26 -191 -7 -177 c 257
 -41 -304 l 257
 3 -328 67 -347 138 -347 c 256
201 1232 m 257
 375 1232 l 257
 375 1457 l 257
 201 1457 l 257
 201 1232 l 257
EndSplineSet
EndChar

StartChar: k
Encoding: 79 107 260
Width: 1029
VWidth: 0
Flags: HW
PickledData: "(dp1
S'segmentType'
p2
S'line'
p3
sS'b'
(dp4
sS'anchors'
p5
(tsS'lib'
p6
(dp7
sS'unicodes'
p8
(tsS'width'
p9
S'1005'
p10
sS'points'
p11
(dp12
sS'contours'
p13
(dp14
sS'components'
p15
(tsS'y'
S'511'
p16
sS'x'
S'268'
p17
sS'com.typemytype.robofont.layerData'
p18
(dp19
sS'name'
p20
S'k'
s."
LayerCount: 2
Fore
SplineSet
126 0 m 257
 297 0 l 257
 297 352 l 257
 493 539 l 257
 847 0 l 257
 1039 0 l 257
 603 645 l 257
 999 1023 l 257
 806 1023 l 257
 297 533 l 257
 297 1474 l 257
 126 1474 l 257
 126 0 l 257
EndSplineSet
EndChar

StartChar: kgreenlandic
Encoding: 251 312 262
Width: 1010
VWidth: 0
Flags: HW
PickledData: "(dp1
S'segmentType'
p2
S'curve'
p3
sS'b'
(dp4
sS'anchors'
p5
(tsS'lib'
p6
(dp7
sS'unicodes'
p8
(tsS'width'
p9
S'1010'
p10
sS'points'
p11
(dp12
sS'contours'
p13
(dp14
sS'components'
p15
(tsS'y'
S'446'
p16
sS'x'
S'271'
p17
sS'com.typemytype.robofont.layerData'
p18
(dp19
sS'name'
p20
S'kgreenlandic'
p21
s."
LayerCount: 2
Fore
SplineSet
845 0 m 1
 1037 0 l 1
 607 597 l 1
 980 1023 l 1
 785 1023 l 1
 285.544624714 465.848917569 l 1
 285 1023 l 1
 116 1023 l 1
 116 0 l 1
 286 0 l 1
 285.716003511 290.528407815 l 1
 492 504 l 1
 845 0 l 1
EndSplineSet
EndChar

StartChar: l
Encoding: 80 108 263
Width: 445
VWidth: 0
Flags: HW
PickledData: "(dp1
S'com.typemytype.robofont.layerData'
p2
(dp3
s."
AnchorPoint: "caron.alt" 303 1023 basechar 0
LayerCount: 2
Fore
SplineSet
135 0 m 257
 305 0 l 257
 305 1474 l 257
 135 1474 l 257
 135 0 l 257
EndSplineSet
EndChar

StartChar: less
Encoding: 32 60 268
Width: 1051
VWidth: 0
Flags: HW
LayerCount: 2
Fore
SplineSet
998 91 m 257
 998 257 l 257
 242 525 l 257
 998 780 l 257
 998 963 l 257
 49 610 l 257
 49 457 l 257
 998 91 l 257
EndSplineSet
EndChar

StartChar: lessequal
Encoding: 480 8804 269
Width: 1051
VWidth: 0
Flags: HW
LayerCount: 2
Fore
SplineSet
998 246 m 257
 998 404 l 257
 242 618 l 257
 998 813 l 257
 998 996 l 257
 49 699 l 257
 49 546 l 257
 998 246 l 257
43 0 m 257
 1003 0 l 257
 1003 121 l 257
 43 121 l 257
 43 0 l 257
EndSplineSet
EndChar

StartChar: logicalnot
Encoding: 111 172 270
Width: 1024
VWidth: 0
Flags: HW
LayerCount: 2
Fore
SplineSet
795 331 m 257
 897 331 l 257
 897 756 l 257
 135 756 l 257
 135 653 l 257
 795 653 l 257
 795 331 l 257
EndSplineSet
EndChar

StartChar: lozenge
Encoding: 482 9674 271
Width: 1055
VWidth: 0
Flags: HW
LayerCount: 2
Fore
SplineSet
452 0 m 257
 591 0 l 257
 1024 699 l 257
 591 1398 l 257
 452 1398 l 257
 31 699 l 257
 452 0 l 257
529 159 m 257
 213 699 l 257
 529 1239 l 257
 849 699 l 257
 529 159 l 257
EndSplineSet
EndChar

StartChar: lslash
Encoding: 261 322 272
Width: 421
VWidth: 0
Flags: HW
PickledData: "(dp1
S'b'
(dp2
sS'anchors'
p3
(tsS'lib'
p4
(dp5
sS'unicodes'
p6
(tsS'width'
p7
S'421'
p8
sS'contours'
p9
(tsS'components'
p10
(tsS'com.typemytype.robofont.layerData'
p11
(dp12
sS'name'
p13
S'lslash'
p14
s."
LayerCount: 2
Fore
SplineSet
-52 646 m 257
 477 891 l 257
 477 1032 l 257
 -52 787 l 257
 -52 646 l 257
EndSplineSet
Refer: 263 108 N 1 0 0 1 0 0 2
EndChar

StartChar: m
Encoding: 81 109 273
Width: 1799
VWidth: 0
Flags: HW
PickledData: "(dp1
S'segmentType'
p2
S'curve'
p3
sS'b'
(dp4
sS'anchors'
p5
(tsS'lib'
p6
(dp7
sS'unicodes'
p8
(tsS'width'
p9
S'1782'
p10
sS'points'
p11
(dp12
sS'contours'
p13
(dp14
sS'components'
p15
(tsS'y'
S'757'
p16
sS'x'
S'269'
p17
sS'com.typemytype.robofont.layerData'
p18
(dp19
sS'name'
p20
S'm'
s."
LayerCount: 2
Fore
SplineSet
126 0 m 257
 296 0 l 257
 296 516 l 257
 300 736 373 925 606 925 c 256
 772 925 817 808 817 603 c 258
 817 0 l 257
 987 0 l 257
 987 495 l 258
 987 726 1055 925 1298 925 c 256
 1463 925 1509 808 1509 603 c 258
 1509 0 l 257
 1679 0 l 257
 1679 588 l 258
 1679 794 1651 1045 1328 1045 c 256
 1148 1045 1027 968 962 823 c 257
 925 947 839 1045 637 1045 c 256
 477 1045 365 982 296 866 c 257
 296 1023 l 257
 126 1023 l 257
 126 0 l 257
EndSplineSet
EndChar

StartChar: macron
Encoding: 114 175 274
Width: 724
VWidth: 0
Flags: HW
PickledData: "(dp1
S'com.typemytype.robofont.layerData'
p2
(dp3
s."
LayerCount: 2
Fore
SplineSet
138 1227 m 257
 592 1227 l 257
 592 1347 l 257
 138 1347 l 257
 138 1227 l 257
EndSplineSet
EndChar

StartChar: minus
Encoding: 472 8722 275
Width: 1024
VWidth: 0
Flags: HW
LayerCount: 2
Fore
SplineSet
135 664 m 257
 803 664 l 257
 803 766 l 257
 135 766 l 257
 135 664 l 257
EndSplineSet
EndChar

StartChar: mu
Encoding: -1 956 276
Width: 1119
VWidth: 0
Flags: HW
PickledData: "(dp1
S'com.typemytype.robofont.layerData'
p2
(dp3
s."
LayerCount: 2
Fore
SplineSet
115 -224 m 257
 285 -224 l 257
 285 1023 l 257
 115 1023 l 257
 115 -224 l 257
EndSplineSet
Refer: 364 117 N 1 0 0 1 0 0 2
EndChar

StartChar: multiply
Encoding: 154 215 277
Width: 734
VWidth: 0
Flags: HW
PickledData: "(dp1
S'com.typemytype.robofont.layerData'
p2
(dp3
s."
LayerCount: 2
Fore
SplineSet
201 188 m 257
 365 352 l 257
 529 188 l 257
 631 290 l 257
 467 454 l 257
 631 618 l 257
 529 720 l 257
 365 556 l 257
 201 720 l 257
 99 618 l 257
 263 454 l 257
 99 290 l 257
 201 188 l 257
EndSplineSet
EndChar

StartChar: n
Encoding: 82 110 278
Width: 1107
VWidth: 0
Flags: HW
PickledData: "(dp1
S'segmentType'
p2
S'curve'
p3
sS'b'
(dp4
sS'anchors'
p5
(tsS'lib'
p6
(dp7
sS'unicodes'
p8
(tsS'width'
p9
S'1086'
p10
sS'points'
p11
(dp12
sS'contours'
p13
(dp14
sS'components'
p15
(tsS'y'
S'830'
p16
sS'x'
S'265'
p17
sS'com.typemytype.robofont.layerData'
p18
(dp19
sS'name'
p20
S'n'
s."
LayerCount: 2
Fore
SplineSet
126 0 m 257
 296 0 l 257
 296 535 l 257
 303 742 380 925 607 925 c 256
 772 925 817 808 817 602 c 258
 817 0 l 257
 987 0 l 257
 987 588 l 258
 987 793 958 1045 637 1045 c 256
 478 1045 365 984 296 868 c 257
 296 1023 l 257
 126 1023 l 257
 126 0 l 257
EndSplineSet
EndChar

StartChar: nine
Encoding: 29 57 283
Width: 1220
VWidth: 0
Flags: HW
PickledData: "(dp1
S'b'
(dp2
sS'anchors'
p3
(tsS'lib'
p4
(dp5
sS'unicodes'
p6
(tsS'width'
p7
S'1202'
p8
sS'contours'
p9
(tsS'components'
p10
(tsS'com.typemytype.robofont.layerData'
p11
(dp12
sS'name'
p13
S'nine'
p14
s."
LayerCount: 2
Fore
SplineSet
905 634 m 257
 891.966858493 278.094981921 755.712531834 115.974153286 555.44262245 115.974153286 c 0
 468.591026301 115.974153286 371.397979127 144.033561853 280 203 c 257
 231 70 l 257
 335 6 469 -25 567 -25 c 256
 881 -25 1097 266 1097 767 c 256
 1097 1215 922 1490 582 1490 c 256
 281 1490 116 1238 116 984 c 256
 116 685.14787705 303.218009367 518.788499191 556.298594012 518.788499191 c 0
 679.982047587 518.788499191 801.844727709 553.768121552 905 634 c 257
905 777 m 257
 801.576439023 696.559452574 696.93971241 653.82669774 577.185268619 653.82669774 c 0
 384.801125926 653.82669774 297 757.448404586 297 988 c 256
 297 1219 408 1349 582 1349 c 256
 837 1349 905 1087 905 815 c 258
 905 777 l 257
EndSplineSet
EndChar

StartChar: notequal
Encoding: 479 8800 284
Width: 904
VWidth: 0
Flags: HW
LayerCount: 2
Fore
SplineSet
357 253 m 257
 467 535 l 257
 856 535 l 257
 856 654 l 257
 512 654 l 257
 563 785 l 257
 856 785 l 257
 856 904 l 257
 609 904 l 257
 706 1154 l 257
 566 1186 l 257
 461 904 l 257
 48 904 l 257
 48 785 l 257
 417 785 l 257
 367 654 l 257
 48 654 l 257
 48 535 l 257
 322 535 l 257
 228 285 l 257
 357 253 l 257
EndSplineSet
EndChar

StartChar: numbersign
Encoding: 7 35 286
Width: 1221
VWidth: 0
Flags: HW
PickledData: "(dp1
S'com.typemytype.robofont.layerData'
p2
(dp3
s."
LayerCount: 2
Fore
SplineSet
137 0 m 257
 296 1 l 257
 407 541 l 257
 697 541 l 257
 588 0 l 257
 748 1 l 257
 859 541 l 257
 1075 541 l 257
 1109 658 l 257
 883 658 l 257
 931 891 l 257
 1144 891 l 257
 1177 1009 l 257
 955 1009 l 257
 1049 1464 l 257
 883 1463 l 257
 791 1009 l 257
 504 1009 l 257
 598 1464 l 257
 433 1463 l 257
 341 1009 l 257
 151 1009 l 257
 118 891 l 257
 317 891 l 257
 269 658 l 257
 83 658 l 257
 49 541 l 257
 246 541 l 257
 137 0 l 257
431 658 m 257
 480 891 l 257
 767 891 l 257
 721 658 l 257
 431 658 l 257
EndSplineSet
EndChar

StartChar: o
Encoding: 83 111 287
Width: 1090
VWidth: 0
Flags: HW
PickledData: "(dp1
S'com.typemytype.robofont.guides'
p2
(tsS'com.typemytype.robofont.layerData'
p3
(dp4
s."
LayerCount: 2
Fore
SplineSet
545 97 m 256
 322 97 269 308 269 511 c 256
 269 713 322 925 545 925 c 256
 768 925 821 713 821 511 c 256
 821 308 768 97 545 97 c 256
545 -24 m 256
 818 -24 994 159 994 511 c 256
 994 862 818 1045 545 1045 c 256
 271 1045 95 862 95 511 c 256
 95 159 271 -24 545 -24 c 256
EndSplineSet
EndChar

StartChar: oe
Encoding: 278 339 292
Width: 1819
VWidth: 0
Flags: HW
PickledData: "(dp1
S'com.typemytype.robofont.layerData'
p2
(dp3
s."
LayerCount: 2
Fore
SplineSet
556 -24 m 256
 722 -24 852 60 916 208 c 257
 980 70 1109 -24 1290 -24 c 256
 1465 -23 1623 78 1670 256 c 257
 1542 285 l 257
 1507 181 1426 98 1287 98 c 256
 1086 98 1005 283 1004 487 c 257
 1688 487 l 257
 1690 504 1691 555 1691 564 c 256
 1691 837 1565 1045 1280 1045 c 256
 1113 1045 979 948 915 808 c 257
 855 955 721 1045 556 1045 c 256
 282 1045 106 862 106 511 c 256
 106 159 282 -24 556 -24 c 256
556 97 m 256
 333 97 280 308 280 511 c 256
 280 713 333 925 556 925 c 256
 778 925 831 713 831 511 c 256
 831 308 778 97 556 97 c 256
1004 599 m 257
 1016 758 1094 924 1278 924 c 256
 1460 924 1530 804 1532 599 c 257
 1004 599 l 257
EndSplineSet
EndChar

StartChar: ogonek
Encoding: 406 731 293
Width: 462
VWidth: 0
Flags: HW
PickledData: "(dp1
S'com.typemytype.robofont.layerData'
p2
(dp3
s."
AnchorPoint: "ogonek" 290 0 mark 0
LayerCount: 2
Fore
SplineSet
366 -368 m 257
 366 -272 l 257
 349.093579133 -275.870144536 334.593598948 -277.665771242 322.221168322 -277.665771242 c 0
 273.852668031 -277.665771242 258 -250.222792752 258 -212 c 256
 258 -154 297 -77 331 0 c 257
 248 0 l 257
 183.656897195 -80.4288785056 116.9615826 -161.648745476 116.9615826 -244.076245291 c 0
 116.9615826 -308.932314463 168.104864982 -379.126801689 281.483674579 -379.126801689 c 0
 306.569117368 -379.126801689 334.701179041 -375.690567436 366 -368 c 257
EndSplineSet
EndChar

StartChar: one
Encoding: 21 49 297
Width: 836
VWidth: 0
Flags: HW
PickledData: "(dp1
S'com.typemytype.robofont.layerData'
p2
(dp3
s."
LayerCount: 2
Fore
SplineSet
388 0 m 257
 564 0 l 257
 564 1464 l 257
 410 1464 l 257
 116 1340 l 257
 168 1200 l 257
 388 1300 l 257
 388 0 l 257
EndSplineSet
EndChar

StartChar: onehalf
Encoding: 128 189 298
Width: 1473
VWidth: 0
Flags: HW
PickledData: "(dp1
S'com.typemytype.robofont.layerData'
p2
(dp3
s."
LayerCount: 2
Fore
SplineSet
1180 601 m 256
 1248.57458339 601 1299.42639629 555.8724895 1299.42639629 475.103120139 c 0
 1299.42639629 365.070016814 1166.81690579 287.797856984 947 98 c 257
 947 0 l 257
 1429 0 l 257
 1429 95 l 257
 1116 95 l 257
 1299.83258615 255.26430587 1429.45190198 331.986850938 1429.45190198 475.979726262 c 0
 1429.45190198 636.705505652 1307.39408489 712 1184 712 c 256
 1078 712 969 658 926 537 c 257
 1034 483 l 257
 1052 557 1109 601 1180 601 c 256
255 769 m 257
 390 769 l 257
 390 1464 l 257
 267 1464 l 257
 115 1394 l 257
 140 1287 l 257
 255 1345 l 257
 255 769 l 257
175 -14 m 257
 1410 1415 l 257
 1318 1494 l 257
 82 65 l 257
 175 -14 l 257
EndSplineSet
EndChar

StartChar: onequarter
Encoding: 127 188 299
Width: 1403
VWidth: 0
Flags: HW
PickledData: "(dp1
S'com.typemytype.robofont.layerData'
p2
(dp3
s."
LayerCount: 2
Fore
SplineSet
1125 0 m 257
 1259 0 l 257
 1259 140 l 257
 1363 140 l 257
 1363 238 l 257
 1259 238 l 257
 1259 693 l 257
 1086 693 l 257
 778 220 l 257
 778 140 l 257
 1125 140 l 257
 1125 0 l 257
219 769 m 257
 354 769 l 257
 354 1464 l 257
 231 1464 l 257
 79 1394 l 257
 104 1287 l 257
 219 1345 l 257
 219 769 l 257
151 -14 m 257
 1386 1415 l 257
 1294 1494 l 257
 58 65 l 257
 151 -14 l 257
915 238 m 257
 1125 568 l 257
 1125 238 l 257
 915 238 l 257
EndSplineSet
EndChar

StartChar: onesuperior
Encoding: 124 185 300
Width: 697
VWidth: 0
Flags: HW
LayerCount: 2
Fore
SplineSet
330 769 m 261
 465 769 l 261
 465 1464 l 261
 342 1464 l 261
 190 1394 l 261
 215 1287 l 261
 330 1345 l 261
 330 769 l 261
EndSplineSet
EndChar

StartChar: ordfeminine
Encoding: 109 170 301
Width: 946
VWidth: 0
Flags: HW
PickledData: "(dp1
S'com.typemytype.robofont.layerData'
p2
(dp3
s."
LayerCount: 2
Fore
SplineSet
399.899185793 582.961030195 m 0
 522.71406033 582.961030195 600.464881105 635.473653546 662 696 c 257
 678 603 l 257
 806 603 l 257
 806 1144 l 258
 806 1362 691 1474 495 1474 c 256
 398 1474 260 1422 185 1340 c 257
 185 1340 278 1256 278 1255 c 257
 335 1311 415 1354 497 1354 c 256
 591 1354 658 1299 658 1170 c 258
 658 1110 l 257
 565 1101 l 257
 330 1076 152 1018 152 804 c 256
 152 657.922726725 270.850689903 582.961030195 399.899185793 582.961030195 c 0
421.545335338 677.059234844 m 0
 327.680503869 677.059234844 287.071670881 736.037965278 287.071670881 809.935648711 c 0
 287.071670881 926.355472279 353.607670122 973.194894766 563 996 c 258
 658 1006 l 257
 658 788 l 257
 600.369585786 730.369585786 500.402551521 677.059234844 421.545335338 677.059234844 c 0
EndSplineSet
EndChar

StartChar: ordmasculine
Encoding: 125 186 302
Width: 1000
VWidth: 0
Flags: HW
PickledData: "(dp1
S'b'
(dp2
sS'anchors'
p3
(tsS'lib'
p4
(dp5
sS'unicodes'
p6
(tsS'width'
p7
S'1000'
p8
sS'contours'
p9
(tsS'components'
p10
(tsS'com.typemytype.robofont.layerData'
p11
(dp12
sS'name'
p13
S'ordmasculine'
p14
s."
LayerCount: 2
Fore
SplineSet
517 701 m 256
 357 701 289 851 289 1031 c 256
 289 1208 357 1358 516 1358 c 256
 674 1358 744 1208 744 1029 c 256
 744 850 674 701 517 701 c 256
516 583 m 256
 745 583 901 734 901 1031 c 256
 901 1335 734 1474 517 1474 c 256
 297 1474 131 1334 131 1028 c 256
 131 733 287 583 516 583 c 256
EndSplineSet
EndChar

StartChar: oslash
Encoding: 187 248 303
Width: 1104
VWidth: 0
Flags: HW
PickledData: "(dp1
S'b'
(dp2
sS'anchors'
p3
(tsS'lib'
p4
(dp5
sS'unicodes'
p6
(tsS'width'
p7
S'1104'
p8
sS'contours'
p9
(tsS'components'
p10
(tsS'com.typemytype.robofont.layerData'
p11
(dp12
sS'name'
p13
S'oslash'
p14
s."
LayerCount: 2
Fore
SplineSet
269 -198 m 257
 920 1177 l 257
 834 1222 l 257
 181 -153 l 257
 269 -198 l 257
EndSplineSet
Refer: 287 111 N 1 0 0 1 0 0 2
EndChar

StartChar: p
Encoding: 84 112 306
Width: 1118
VWidth: 0
Flags: HW
PickledData: "(dp1
S'b'
(dp2
sS'anchors'
p3
(tsS'lib'
p4
(dp5
sS'unicodes'
p6
(tsS'width'
p7
S'1082'
p8
sS'contours'
p9
(tsS'components'
p10
(tsS'com.typemytype.robofont.layerData'
p11
(dp12
sS'name'
p13
S'p'
s."
LayerCount: 2
Fore
SplineSet
126 -358 m 257
 296 -358 l 257
 296 124 l 257
 358 32 457 -24 599 -24 c 256
 870 -24 1023 182 1023 510 c 256
 1023 861 853 1045 599 1045 c 256
 456 1045 352 975 289 863 c 257
 274 1023 l 257
 126 1023 l 257
 126 -358 l 257
590 97 m 256
 367 97 296 222 296 534 c 256
 299 824 428 925 589 925 c 256
 761 925 849 779 849 516 c 256
 849 239 764 97 590 97 c 256
EndSplineSet
EndChar

StartChar: paragraph
Encoding: 121 182 307
Width: 1038
VWidth: 0
Flags: HW
PickledData: "(dp1
S'com.typemytype.robofont.layerData'
p2
(dp3
s."
LayerCount: 2
Fore
SplineSet
436 0 m 257
 587 0 l 257
 587 1326 l 257
 698 1326 l 257
 698 0 l 257
 849 0 l 257
 849 1326 l 257
 990 1326 l 257
 990 1464 l 257
 594 1464 l 258
 170 1464 88 1304 88 1125 c 256
 88 929 222 799 436 799 c 257
 436 0 l 257
EndSplineSet
EndChar

StartChar: parenleft
Encoding: 12 40 308
Width: 602
VWidth: 0
Flags: HW
PickledData: "(dp1
S'segmentType'
p2
S'curve'
p3
sS'b'
(dp4
sS'anchors'
p5
(tsS'lib'
p6
(dp7
sS'unicodes'
p8
(tsS'width'
p9
S'602'
p10
sS'points'
p11
(dp12
sS'contours'
p13
(dp14
sS'components'
p15
(tsS'y'
S'1518'
p16
sS'x'
S'232'
p17
sS'com.typemytype.robofont.layerData'
p18
(dp19
sS'name'
p20
S'parenleft'
p21
s."
LayerCount: 2
Fore
SplineSet
523 -181 m 257
 557 -79 l 257
 304 -4 199 289 199 703 c 256
 199 1117 304 1410 557 1485 c 257
 523 1587 l 257
 232 1518 18 1242 18 703 c 256
 18 164 232 -112 523 -181 c 257
EndSplineSet
EndChar

StartChar: parenright
Encoding: 13 41 309
Width: 602
VWidth: 0
Flags: HW
PickledData: "(dp1
S'segmentType'
p2
S'curve'
p3
sS'b'
(dp4
sS'anchors'
p5
(tsS'lib'
p6
(dp7
sS'unicodes'
p8
(tsS'width'
p9
S'602'
p10
sS'points'
p11
(dp12
sS'contours'
p13
(dp14
sS'components'
p15
(tsS'y'
S'1518'
p16
sS'x'
S'232'
p17
sS'com.typemytype.robofont.layerData'
p18
(dp19
sS'name'
p20
S'parenright'
p21
s."
LayerCount: 2
Fore
SplineSet
52 -181 m 257
 343 -112 557 164 557 703 c 256
 557 1242 343 1518 52 1587 c 257
 18 1485 l 257
 271 1410 376 1117 376 703 c 256
 376 289 271 -4 18 -79 c 257
 52 -181 l 257
EndSplineSet
EndChar

StartChar: partialdiff
Encoding: 467 8706 310
Width: 1162
VWidth: 0
Flags: HW
LayerCount: 2
Fore
SplineSet
601 908 m 256
 369.860393312 908 127 721.047363921 127 389 c 256
 127 168 252 -24 518 -24 c 256
 888.128747968 -24 1037 289.529247956 1037 683 c 256
 1037 1063 875 1432 320 1432 c 257
 308 1320 l 257
 739 1320 873 1007 878 773 c 257
 814 865 712 908 601 908 c 256
870 607 m 256
 870 337.399066319 763.945368141 106 540 106 c 256
 399 106 296 208 296 388 c 256
 296 625.515311601 441.594736206 776 605 776 c 256
 707 776 787 728 869 628 c 257
 870 622 870 615 870 607 c 256
EndSplineSet
EndChar

StartChar: percent
Encoding: 9 37 311
Width: 1677
VWidth: 0
Flags: HW
PickledData: "(dp1
S'b'
(dp2
sS'anchors'
p3
(tsS'lib'
p4
(dp5
sS'unicodes'
p6
(tsS'width'
p7
S'1677'
p8
sS'contours'
p9
(tsS'components'
p10
(tsS'com.typemytype.robofont.layerData'
p11
(dp12
sS'name'
p13
S'percent'
p14
s."
LayerCount: 2
Fore
SplineSet
357 883 m 256
 237 883 178 991 178 1120 c 256
 178 1246 239 1356 357 1356 c 256
 475 1356 536 1249 536 1120 c 256
 536 991 475 883 357 883 c 256
357 772 m 256
 559 772 666 945 666 1119 c 256
 666 1291 559 1466 357 1466 c 256
 154 1466 46 1291 46 1118 c 256
 46 945 153 772 357 772 c 256
273 -21 m 257
 1508 1408 l 257
 1418 1489 l 257
 182 60 l 257
 273 -21 l 257
1297 102 m 256
 1178 102 1118 210 1118 339 c 256
 1118 465 1180 575 1297 575 c 256
 1415 575 1476 468 1476 338 c 256
 1476 210 1415 102 1297 102 c 256
1297 -10 m 256
 1500 -10 1607 164 1607 338 c 256
 1607 510 1500 685 1297 685 c 256
 1094 685 986 510 986 337 c 256
 986 164 1094 -10 1297 -10 c 256
EndSplineSet
EndChar

StartChar: period
Encoding: 18 46 312
Width: 434
VWidth: 0
Flags: HW
LayerCount: 2
Fore
SplineSet
115 0 m 257
 317 0 l 257
 317 225 l 257
 115 225 l 257
 115 0 l 257
EndSplineSet
EndChar

StartChar: periodcentered
Encoding: 122 183 313
Width: 434
VWidth: 0
Flags: HW
LayerCount: 2
Fore
SplineSet
115 536 m 257
 317 536 l 257
 317 761 l 257
 115 761 l 257
 115 536 l 257
EndSplineSet
EndChar

StartChar: perthousand
Encoding: 457 8240 314
Width: 2420
VWidth: 0
Flags: HW
LayerCount: 2
Fore
SplineSet
2064 102 m 256
 1945 102 1885 210 1885 339 c 256
 1885 465 1947 575 2064 575 c 256
 2183 575 2244 468 2244 338 c 256
 2244 210 2182 102 2064 102 c 256
2065 -10 m 256
 2267 -10 2374 164 2374 338 c 256
 2374 510 2267 685 2065 685 c 256
 1862 685 1754 510 1754 337 c 256
 1754 164 1861 -10 2065 -10 c 256
EndSplineSet
Refer: 311 37 N 1 0 0 1 0 0 2
EndChar

StartChar: pi
Encoding: 418 960 315
Width: 1359
VWidth: 0
Flags: HW
LayerCount: 2
Fore
SplineSet
1083 -13 m 256
 1157 -13 1221 10 1254 42 c 257
 1254 166 l 257
 1227 156 1170 131 1131 131 c 256
 1054 131 1012 227 1012 435 c 256
 1012 548 1023 688 1048 863 c 257
 1276 863 l 257
 1276 1023 l 257
 417 1023 l 258
 187 1023 116 945 116 735 c 257
 208 735 l 257
 220 809 258 863 336 863 c 258
 458 863 l 257
 397 375 l 258
 371 165 250 108 127 108 c 257
 127 3 l 257
 462 3 530 101 540 313 c 258
 565 863 l 257
 927 863 l 257
 898 641 858 430 858 273 c 256
 858 99 908 -13 1083 -13 c 256
EndSplineSet
EndChar

StartChar: plus
Encoding: 15 43 316
Width: 860
VWidth: 0
Flags: HW
LayerCount: 2
Fore
SplineSet
366 350 m 257
 488 350 l 257
 488 665 l 257
 778 665 l 257
 778 785 l 257
 488 785 l 257
 488 1100 l 257
 366 1100 l 257
 366 785 l 257
 72 785 l 257
 72 665 l 257
 366 665 l 257
 366 350 l 257
EndSplineSet
EndChar

StartChar: plusminus
Encoding: 116 177 317
Width: 860
VWidth: 0
Flags: HW
LayerCount: 2
Fore
SplineSet
369 423 m 257
 491 423 l 257
 491 664 l 257
 730 664 l 257
 730 784 l 257
 491 784 l 257
 491 1023 l 257
 369 1023 l 257
 369 784 l 257
 129 784 l 257
 129 664 l 257
 369 664 l 257
 369 423 l 257
128 233 m 257
 730 233 l 257
 730 335 l 257
 128 335 l 257
 128 233 l 257
EndSplineSet
EndChar

StartChar: product
Encoding: 470 8719 318
Width: 1392
VWidth: 0
Flags: HW
LayerCount: 2
Fore
SplineSet
146 0 m 257
 321 0 l 257
 321 1331 l 257
 1071 1331 l 257
 1071 0 l 257
 1247 0 l 257
 1247 1464 l 257
 146 1464 l 257
 146 0 l 257
EndSplineSet
EndChar

StartChar: q
Encoding: 85 113 319
Width: 1116
VWidth: 0
Flags: HW
PickledData: "(dp1
S'b'
(dp2
sS'anchors'
p3
(tsS'lib'
p4
(dp5
sS'unicodes'
p6
(tsS'width'
p7
S'1082'
p8
sS'contours'
p9
(tsS'components'
p10
(tsS'com.typemytype.robofont.layerData'
p11
(dp12
sS'name'
p13
S'p'
s."
LayerCount: 2
Fore
SplineSet
821 -350 m 257
 991 -350 l 257
 991 1023 l 257
 844 1023 l 257
 829 863 l 257
 766 975 661 1045 519 1045 c 256
 265 1045 95 861 95 510 c 256
 95 182 247 -24 518 -24 c 256
 661 -24 760 32 821 124 c 257
 821 -350 l 257
527 97 m 256
 354 97 268 239 268 516 c 256
 268 779 357 925 529 925 c 256
 694 925 822 829 822 503 c 256
 822 228 749 97 527 97 c 256
EndSplineSet
EndChar

StartChar: question
Encoding: 35 63 320
Width: 1010
VWidth: 0
Flags: HW
PickledData: "(dp1
S'com.typemytype.robofont.layerData'
p2
(dp3
s."
LayerCount: 2
Fore
SplineSet
351 358 m 257
 505 357 l 257
 743 738 941 805 941 1094 c 256
 941 1290 816 1491 497 1491 c 256
 332 1491 154 1439 35 1250 c 257
 154 1163 l 257
 184 1209 283 1351 488 1351 c 256
 697 1351 766 1227 766 1089 c 256
 766 833 587 785 351 358 c 257
336 0 m 257
 531 0 l 257
 531 223 l 257
 336 223 l 257
 336 0 l 257
EndSplineSet
EndChar

StartChar: quotedbl
Encoding: 6 34 322
Width: 510
VWidth: 0
Flags: HW
PickledData: "(dp1
S'com.typemytype.robofont.layerData'
p2
(dp3
s."
LayerCount: 2
Fore
SplineSet
89 1000 m 257
 148 1000 l 257
 197 1464 l 257
 39 1464 l 257
 89 1000 l 257
360 1000 m 257
 419 1000 l 257
 468 1464 l 257
 310 1464 l 257
 360 1000 l 257
EndSplineSet
EndChar

StartChar: quotedblbase
Encoding: 452 8222 323
Width: 744
VWidth: 0
Flags: HW
LayerCount: 2
Fore
SplineSet
159 -382 m 257
 319 -269 316 -87 320 93 c 257
 102 93 l 257
 102 -81 l 257
 101 -82 177 -99 177 -99 c 257
 174 -219 123 -296 98 -319 c 257
 159 -382 l 257
491 -382 m 257
 651 -269 648 -87 652 93 c 257
 434 93 l 257
 434 -81 l 258
 434 -82 509 -99 509 -99 c 257
 506 -219 455 -296 430 -319 c 257
 491 -382 l 257
EndSplineSet
EndChar

StartChar: quotedblleft
Encoding: 450 8220 324
Width: 630
VWidth: 0
Flags: HW
LayerCount: 2
Fore
SplineSet
24 995 m 257
 236 995 l 257
 236 1183 l 257
 139 1197 l 257
 142 1319 195 1387 220 1410 c 257
 165 1473 l 257
 31 1379 24 1240 24 1084 c 258
 24 995 l 257
336 995 m 257
 548 995 l 257
 548 1183 l 257
 445 1196 l 257
 448 1319 501 1387 526 1410 c 257
 471 1473 l 257
 337 1378 341 1242 336 1084 c 257
 336 995 l 257
EndSplineSet
EndChar

StartChar: quotedblright
Encoding: 451 8221 325
Width: 631
VWidth: 0
Flags: HW
LayerCount: 2
Fore
SplineSet
148 991 m 257
 308 1104 285 1284 289 1464 c 257
 76 1464 l 257
 76 1292 l 258
 76 1291 166 1273 166 1274 c 257
 163 1154 112 1077 86 1054 c 257
 148 991 l 257
453 991 m 257
 612 1103 602 1285 607 1464 c 257
 395 1464 l 257
 395 1292 l 257
 476 1273 l 257
 473 1152 421 1075 396 1054 c 257
 453 991 l 257
EndSplineSet
EndChar

StartChar: quoteleft
Encoding: 447 8216 326
Width: 330
VWidth: 0
Flags: HW
LayerCount: 2
Fore
SplineSet
26 992 m 257
 238 992 l 257
 238 1187 l 257
 144 1200 l 257
 144 1298 165 1331 222 1427 c 257
 221 1427 145 1468 145 1469 c 257
 28 1374 26 1244 26 1103 c 256
 26 1066 26 1029 26 992 c 257
EndSplineSet
EndChar

StartChar: quoteright
Encoding: 448 8217 327
Width: 330
VWidth: 0
Flags: HW
LayerCount: 2
Fore
SplineSet
160 991 m 257
 326 1104 302 1284 306 1464 c 257
 94 1464 l 257
 94 1292 l 258
 94 1291 184 1273 184 1274 c 257
 181 1154 130 1083 105 1060 c 257
 160 991 l 257
EndSplineSet
EndChar

StartChar: quotesinglbase
Encoding: 449 8218 328
Width: 436
VWidth: 0
Flags: HW
LayerCount: 2
Fore
SplineSet
177 -382 m 257
 337 -269 334 -87 338 93 c 257
 122 93 l 257
 122 -81 l 258
 122 -82 195 -99 195 -99 c 257
 192 -219 141 -296 116 -319 c 257
 177 -382 l 257
EndSplineSet
EndChar

StartChar: quotesingle
Encoding: 11 39 329
Width: 280
VWidth: 0
Flags: HW
PickledData: "(dp1
S'com.typemytype.robofont.layerData'
p2
(dp3
s."
LayerCount: 2
Fore
SplineSet
123 1000 m 257
 181 1000 l 257
 230 1464 l 257
 73 1464 l 257
 123 1000 l 257
EndSplineSet
EndChar

StartChar: r
Encoding: 86 114 330
Width: 651
VWidth: 0
Flags: HW
PickledData: "(dp1
S'segmentType'
p2
S'line'
p3
sS'b'
(dp4
sS'anchors'
p5
(tsS'lib'
p6
(dp7
sS'unicodes'
p8
(tsS'width'
p9
S'626'
p10
sS'points'
p11
(dp12
sS'contours'
p13
(dp14
sS'components'
p15
(tsS'y'
S'1023'
p16
sS'x'
S'127'
p17
sS'com.typemytype.robofont.layerData'
p18
(dp19
sS'name'
p20
S'r'
s."
LayerCount: 2
Fore
SplineSet
126 0 m 257
 296 0 l 257
 295 534 l 257
 299 715 382 881 601 881 c 257
 601 1031 l 257
 468 1031 364 974 295 845 c 257
 295 1023 l 257
 126 1023 l 257
 126 0 l 257
EndSplineSet
EndChar

StartChar: radical
Encoding: 475 8730 332
Width: 1293
VWidth: 0
Flags: HW
LayerCount: 2
Fore
SplineSet
480 0 m 257
 614 0 l 257
 1202 1464 l 257
 1032 1464 l 257
 536 176 l 257
 281 583 l 257
 109 583 l 257
 480 0 l 257
EndSplineSet
EndChar

StartChar: registered
Encoding: 113 174 335
Width: 1702
VWidth: 0
Flags: HW
PickledData: "(dp1
S'com.typemytype.robofont.layerData'
p2
(dp3
s."
LayerCount: 2
Fore
SplineSet
1084 379 m 257
 1192 379 l 257
 1006 792 l 257
 1121 826 1179 900 1179 1017 c 256
 1179 1173 1071 1248 857 1248 c 258
 578 1248 l 257
 578 381 l 257
 676 381 l 257
 676 775 l 257
 906 775 l 257
 1084 379 l 257
679 854 m 257
 679 1173 l 257
 848 1173 l 258
 960 1173 1076 1157 1076 1015 c 256
 1076 864 969 854 843 854 c 258
 679 854 l 257
849 106 m 256
 480 106 189 371 189 773 c 256
 189 1166 481 1444 850 1444 c 256
 1220 1444 1513 1136 1513 773 c 256
 1513 411 1219 106 849 106 c 256
850 53 m 256
 1251 53 1579 375 1579 774 c 256
 1579 1175 1251 1497 850 1497 c 256
 451 1497 123 1205 123 774 c 256
 123 335 451 53 850 53 c 256
EndSplineSet
EndChar

StartChar: ring
Encoding: 405 730 336
Width: 728
VWidth: 0
Flags: HW
PickledData: "(dp1
S'com.typemytype.robofont.layerData'
p2
(dp3
s."
LayerCount: 2
Fore
SplineSet
363 1294 m 256
 277 1294 231 1362 231 1436 c 256
 231 1510 277 1579 363 1579 c 256
 449 1579 495 1510 495 1436 c 256
 495 1362 449 1294 363 1294 c 256
363 1193 m 256
 519 1193 612 1309 612 1436 c 256
 612 1564 519 1679 363 1679 c 256
 207 1679 114 1564 114 1436 c 256
 114 1309 207 1193 363 1193 c 256
EndSplineSet
EndChar

StartChar: s
Encoding: 87 115 337
Width: 920
VWidth: 0
Flags: HW
PickledData: "(dp1
S'segmentType'
p2
S'curve'
p3
sS'b'
(dp4
sS'anchors'
p5
(tsS'lib'
p6
(dp7
sS'unicodes'
p8
(tsS'width'
p9
S'913'
p10
sS'points'
p11
(dp12
sS'contours'
p13
(dp14
sS'components'
p15
(tsS'y'
S'993'
p16
sS'x'
S'765'
p17
sS'com.typemytype.robofont.layerData'
p18
(dp19
sS'name'
p20
S's'
s."
LayerCount: 2
Fore
SplineSet
452 -24 m 256
 734 -24 851 84 851 284 c 256
 851 477 752 536 499 589 c 256
 308.902468595 628.603652376 258.985091726 647.621407932 258.985091726 757.668529374 c 0
 258.985091726 871.480838 316.351657756 925 486 925 c 256
 617 925 683 886 732 784 c 257
 732 785 839 844 839 844 c 257
 767 994 658 1045 479 1045 c 256
 253 1045 100 945 100 761 c 256
 100 559 200 514 408 467 c 256
 662.78525915 409.722693679 703.01886543 406.083300576 703.01886543 267.317527146 c 0
 703.01886543 265.566656621 703.012460236 263.794273963 703 262 c 256
 703 135 604 97 466 97 c 256
 303 97 242 147 193 277 c 257
 68 226 l 257
 120 35 287 -24 452 -24 c 256
EndSplineSet
EndChar

StartChar: section
Encoding: 106 167 343
Width: 1005
VWidth: 0
Flags: HW
PickledData: "(dp1
S'segmentType'
p2
S'curve'
p3
sS'b'
(dp4
sS'anchors'
p5
(tsS'lib'
p6
(dp7
sS'unicodes'
p8
(tsS'width'
p9
S'1005'
p10
sS'points'
p11
(dp12
sS'contours'
p13
(dp14
sS'components'
p15
(tsS'y'
S'808'
p16
sS'x'
S'838'
p17
sS'com.typemytype.robofont.layerData'
p18
(dp19
sS'name'
p20
S'section'
p21
s."
LayerCount: 2
Fore
SplineSet
301 986 m 1
 197.715873649 895.879536811 165.941998982 822.636404192 165.941998982 749.70236483 c 0
 165.941998982 442.171042401 757.180958985 459.710826023 757.180958985 264.417341906 c 0
 757.180958985 166.989186013 680.481762376 117 539 117 c 0
 393 117 295 176 249 317 c 1
 127 273 l 1
 166 49 370 -25 535 -25 c 0
 759.784192982 -25 907.385013433 73.7068772704 907.385013433 270.652229199 c 0
 907.385013433 363.411114949 844.771276626 434.152482249 773 482 c 1
 861.738688126 575.838612731 878.158560703 647.319814454 878.158560703 721.537282481 c 0
 878.158560703 1011.09441358 325 1016.82913599 325 1205 c 3
 325 1300.75511238 392.938416453 1354 533.494402797 1354 c 0
 642.46215525 1354 715.986484018 1324.20788737 775 1217 c 1
 775 1218 884 1285 884 1285 c 1
 811 1437 705 1490 528 1490 c 0
 309 1490 157 1391 157 1207 c 0
 157 1089 233 1027 301 986 c 1
655 542 m 1
 471.828684963 626.485994145 313.859979935 662.078924873 313.859979935 764.009742579 c 0
 313.859979935 805.650263883 340.222829856 858.361685326 402 930 c 1
 607.547943685 847.780822526 721.823357123 807.313972718 721.823357123 709.822363939 c 0
 721.823357123 667.395158284 700.180869122 614.168099671 655 542 c 1
EndSplineSet
EndChar

StartChar: semicolon
Encoding: 31 59 344
Width: 478
VWidth: 0
Flags: HW
LayerCount: 2
Fore
SplineSet
216 -270 m 257
 352 -183 364 -56 367 118 c 257
 367 227 l 257
 127 227 l 257
 127 17 l 257
 231 4 l 257
 229 -100 174 -166 146 -190 c 257
 216 -270 l 257
136 808 m 257
 355 808 l 257
 355 1033 l 257
 136 1033 l 257
 136 808 l 257
EndSplineSet
EndChar

StartChar: seven
Encoding: 27 55 345
Width: 1246
VWidth: 0
Flags: HW
PickledData: "(dp1
S'com.typemytype.robofont.layerData'
p2
(dp3
s."
LayerCount: 2
Fore
SplineSet
539 -1 m 257
 1073 1329 l 257
 1073 1464 l 257
 199 1464 l 257
 212 1329 l 257
 889 1329 l 257
 348 1 l 257
 539 -1 l 257
EndSplineSet
EndChar

StartChar: six
Encoding: 26 54 346
Width: 1220
VWidth: 0
Flags: HW
PickledData: "(dp1
S'com.typemytype.robofont.layerData'
p2
(dp3
s."
LayerCount: 2
Fore
SplineSet
314 832 m 257
 327.032980687 1187.90062646 463.296075 1350.02584671 664.556502677 1350.02584671 c 0
 751.37511511 1350.02584671 847.619246904 1321.96643815 940 1263 c 257
 988 1396 l 257
 884 1460 750 1490 652 1490 c 256
 338 1490 122 1199 122 698 c 256
 122 251 297 -25 637 -25 c 256
 938 -25 1103 227 1103 481 c 256
 1103 780.701672229 914.716065513 947.156252359 661.490294942 947.156252359 c 0
 539.353437587 947.156252359 417.441767702 910.615743453 314 832 c 257
314 689 m 257
 417.42298293 769.440097835 522.060055109 812.173289957 641.813281645 812.173289957 c 0
 834.198432982 812.173289957 922 708.529090524 922 477 c 256
 922 247 811 117 637 117 c 256
 382 117 314 379 314 651 c 258
 314 689 l 257
EndSplineSet
EndChar

StartChar: slash
Encoding: 19 47 347
Width: 592
VWidth: 0
Flags: HW
LayerCount: 2
Fore
SplineSet
172 -40 m 257
 598 1502 l 257
 458 1534 l 257
 43 -8 l 257
 172 -40 l 257
EndSplineSet
EndChar

StartChar: sterling
Encoding: 102 163 349
Width: 1168
VWidth: 0
Flags: HW
PickledData: "(dp1
S'com.typemytype.robofont.layerData'
p2
(dp3
s."
LayerCount: 2
Fore
SplineSet
419.058111584 485.460607763 m 0
 419.058111584 546.504927408 409.438452125 609.738574499 403 687 c 257
 773 687 l 257
 773 810 l 257
 395 810 l 257
 390 867 377 955 377 1007 c 256
 377 1243 462 1350 651 1350 c 256
 733 1350 825 1329 861 1131 c 257
 1003 1152 l 257
 971 1368 877 1490 645 1490 c 256
 359 1490 209 1321 209 988 c 256
 209 942 222 860 226 810 c 257
 60 810 l 257
 60 687 l 257
 236 687 l 257
 245 635 260 564 260 515 c 256
 260 324 201 176 145 73 c 257
 219 -26 l 257
 424 24 562 42 683 42 c 256
 813 42 879 21 979 0 c 257
 1012 140 l 257
 936 163 833 193 741 193 c 256
 617 193 510 181 327 114 c 257
 370.144571245 197.347467177 419.058111584 309.539779828 419.058111584 485.460607763 c 0
EndSplineSet
EndChar

StartChar: summation
Encoding: 471 8721 350
Width: 1264
VWidth: 0
Flags: HW
LayerCount: 2
Fore
SplineSet
161 -18 m 257
 1142 -18 l 257
 1142 117 l 257
 332 117 l 257
 881 680 l 257
 881 789 l 257
 335 1362 l 257
 1142 1362 l 257
 1142 1491 l 257
 161 1491 l 257
 161 1355 l 257
 728 737 l 257
 161 135 l 257
 161 -18 l 257
EndSplineSet
EndChar

StartChar: t
Encoding: 88 116 351
Width: 671
VWidth: 0
Flags: HW
PickledData: "(dp1
S'com.typemytype.robofont.layerData'
p2
(dp3
s."
AnchorPoint: "caron.alt" 309 1023 basechar 0
LayerCount: 2
Fore
SplineSet
467 -16 m 256
 532 -16 602 5 649 30 c 257
 621 141 l 257
 577 122 531 110 489 110 c 256
 409 111 361 156 361 285 c 258
 361 907 l 257
 585 907 l 257
 585 1023 l 257
 361 1023 l 257
 361 1390 l 257
 198 1346 l 257
 191 1023 l 257
 42 1023 l 257
 42 907 l 257
 191 907 l 257
 191 314 l 258
 191 72 297 -16 467 -16 c 256
EndSplineSet
EndChar

StartChar: tbar
Encoding: 298 359 352
Width: 671
VWidth: 0
Flags: HW
LayerCount: 2
Fore
SplineSet
79 534 m 257
 533 534 l 257
 533 654 l 257
 79 654 l 257
 79 534 l 257
EndSplineSet
Refer: 351 116 N 1 0 0 1 0 0 2
EndChar

StartChar: thorn
Encoding: 193 254 356
Width: 1058
VWidth: 0
Flags: HW
PickledData: "(dp1
S'b'
(dp2
sS'anchors'
p3
(tsS'lib'
p4
(dp5
sS'unicodes'
p6
(tsS'width'
p7
S'1058'
p8
sS'contours'
p9
(tsS'components'
p10
(tsS'com.typemytype.robofont.layerData'
p11
(dp12
sS'name'
p13
S'thorn'
p14
s."
LayerCount: 2
Fore
SplineSet
111 -394 m 257
 281 -376 l 257
 281 142 l 257
 337 45 429 -24 580 -24 c 256
 831 -24 986 217 986 520 c 256
 986 824 855 1045 576 1045 c 256
 434 1045 335 979 280 873 c 257
 280 1464 l 257
 111 1464 l 257
 111 -394 l 257
555.092849874 923.006405893 m 0
 700.89363943 923.006405893 811 798.592392692 811 521 c 256
 811 263 729 98 564 98 c 256
 372.942784831 98 280.994179742 269.832335648 280.994179742 522.358116096 c 0
 280.994179742 807.670873907 407.487206302 923.006405893 555.092849874 923.006405893 c 0
EndSplineSet
EndChar

StartChar: three
Encoding: 23 51 357
Width: 1154
VWidth: 0
Flags: HW
PickledData: "(dp1
S'com.typemytype.robofont.layerData'
p2
(dp3
s."
LayerCount: 2
Fore
SplineSet
564.612322287 116.950923929 m 0
 406.346773558 116.950923929 316.695379939 205.887114802 264 366 c 257
 115 316 l 257
 176 68 365 -25 572 -25 c 256
 874.668880269 -24.0010928044 1033.00891533 192.789368214 1033.00891533 404.17190395 c 0
 1033.00891533 581.157407362 949.633994724 761.332592589 721 817 c 257
 898 871 962 1014 962 1154 c 256
 962 1352 810 1490 561 1490 c 256
 391 1490 249 1412 149 1256 c 257
 276 1180 l 257
 363 1312 460 1351 568 1351 c 256
 716 1351 791 1250 791 1140 c 256
 791 1006 736 876 462 876 c 257
 462 741 l 257
 701.16592894 741 854.11819805 659.629804204 854.11819805 408.222403144 c 0
 854.11819805 254.160257517 767.766797317 116.950923929 564.612322287 116.950923929 c 0
EndSplineSet
EndChar

StartChar: threequarters
Encoding: 129 190 358
Width: 1505
VWidth: 0
Flags: HW
PickledData: "(dp1
S'com.typemytype.robofont.layerData'
p2
(dp3
s."
LayerCount: 2
Fore
SplineSet
123 910 m 257
 152.125909493 790.483336906 270.903539524 743.991924729 366.611604301 743.991924729 c 0
 527.921094951 743.991924729 616.049358745 836.713745618 616.049358745 956.093451078 c 0
 616.049358745 1009.34694873 599.622024013 1105.26897855 466 1144 c 257
 554 1172 586 1240 586 1306 c 256
 586 1402 495 1481 353 1481 c 256
 271 1481 167 1440 137 1358 c 257
 222 1297 l 257
 248 1349 300 1379 354 1379 c 256
 421.168378888 1379 463.02321716 1346.51548585 463.02321716 1294.14805768 c 0
 463.02321716 1233.68479885 431.120444543 1191.96918762 311 1190 c 257
 311 1086 l 257
 447 1086 488 1034 488 955 c 256
 488 900 441 850 371 850 c 256
 307 850 246 873 218 954 c 257
 123 910 l 257
1229 0 m 257
 1365 0 l 257
 1365 140 l 257
 1467 140 l 257
 1467 238 l 257
 1365 238 l 257
 1365 693 l 257
 1190 693 l 257
 882 220 l 257
 882 140 l 257
 1229 140 l 257
 1229 0 l 257
278 -14 m 257
 1513 1415 l 257
 1421 1494 l 257
 185 65 l 257
 278 -14 l 257
1019 238 m 257
 1229 568 l 257
 1229 238 l 257
 1019 238 l 257
EndSplineSet
EndChar

StartChar: uni00B3
Encoding: 118 179 359
Width: 962
VWidth: 0
Flags: HW
LayerCount: 2
Fore
SplineSet
469.152025227 738.989104805 m 0
 382.791459297 738.989104805 326.880147751 783.35542391 298 869 c 1
 202 829 l 1
 235 691 351 640 467 639 c 0
 646 639 741 757 741 881 c 0
 738 978 698 1066 572 1104 c 1
 665 1137 702 1214 702 1292 c 0
 702 1397 613 1484 461 1484 c 0
 366 1484 268 1439 223 1348 c 1
 309 1292 l 1
 347 1361 404 1387 463 1387 c 0
 540 1387 579 1343 579 1281 c 0
 579 1207 552 1147 405 1146 c 1
 405 1049 l 1
 545.100556911 1049 616.091232881 1000.04716767 616.091232881 883.333552713 c 0
 616.091232881 808.497902904 571.071834575 738.989104805 469.152025227 738.989104805 c 0
EndSplineSet
EndChar

StartChar: tilde
Encoding: 407 732 360
Width: 798
VWidth: 0
Flags: HW
PickledData: "(dp1
S'com.typemytype.robofont.layerData'
p2
(dp3
s."
LayerCount: 2
Fore
SplineSet
567 1197 m 256
 630 1197 677 1244 677 1368 c 256
 677 1381 677 1395 676 1410 c 257
 565 1410 l 257
 565 1353 558 1322 529 1322 c 256
 472 1322 326 1411 229 1411 c 256
 176 1411 110 1375 110 1251 c 256
 110 1235 111 1218 114 1199 c 257
 223 1199 l 257
 223 1259 240 1284 264 1284 c 257
 344 1278 465 1197 567 1197 c 256
EndSplineSet
EndChar

StartChar: trademark
Encoding: 464 8482 361
Width: 1847
VWidth: 0
Flags: HW
PickledData: "(dp1
S'com.typemytype.robofont.layerData'
p2
(dp3
s."
LayerCount: 2
Fore
SplineSet
928 615 m 257
 1054 615 l 257
 1054 1241 l 257
 1274 731 l 257
 1382 731 l 257
 1607 1238 l 257
 1607 615 l 257
 1728 615 l 257
 1728 1463 l 257
 1579 1463 l 257
 1332 905 l 257
 1087 1464 l 257
 928 1464 l 257
 928 615 l 257
371 615 m 257
 505 615 l 257
 505 1365 l 257
 757 1365 l 257
 757 1464 l 257
 116 1464 l 257
 116 1365 l 257
 371 1365 l 257
 371 615 l 257
EndSplineSet
EndChar

StartChar: two
Encoding: 22 50 362
Width: 1246
VWidth: 0
Flags: HW
PickledData: "(dp1
S'com.typemytype.robofont.layerData'
p2
(dp3
s."
LayerCount: 2
Fore
SplineSet
1063.03547069 1045.68499413 m 0
 1063.03547069 1351.83899413 875.563165702 1490 619 1490 c 256
 394 1490 246 1391 132 1141 c 257
 286 1079 l 257
 370 1257 465 1350 631 1350 c 256
 784 1350 888 1239 888 1056 c 256
 888 612 187 509 176 0 c 257
 1065 0 l 257
 1065 145 l 257
 372 145 l 257
 542.190198009 476.423017176 1063.03547069 604.783067381 1063.03547069 1045.68499413 c 0
EndSplineSet
EndChar

StartChar: uni00B2
Encoding: 117 178 363
Width: 1236
VWidth: 0
Flags: HW
LayerCount: 2
Fore
SplineSet
351 666 m 257
 883 666 l 257
 883 761 l 257
 505 761 l 257
 611.415925347 934.050196359 882.024527942 994.341566175 882.024527942 1237.97181359 c 0
 882.024527942 1407.77830616 756.29224449 1490 615 1490 c 256
 491 1490 384 1433 327 1292 c 257
 336 1289 432 1245 432 1245 c 257
 466 1339 535 1386 618 1386 c 256
 697 1386 758 1332 758 1238 c 256
 758 1025 357 948 351 666 c 257
EndSplineSet
EndChar

StartChar: u
Encoding: 89 117 364
Width: 1109
VWidth: 0
Flags: HW
PickledData: "(dp1
S'segmentType'
p2
S'curve'
p3
sS'b'
(dp4
sS'anchors'
p5
(tsS'com.typemytype.robofont.layerData'
p6
(dp7
sS'unicodes'
p8
(tsS'baseGlyph'
p9
S'lc_main_stem'
p10
sS'width'
p11
S'1086'
p12
sS'points'
p13
(dp14
sS'contours'
p15
(dp16
sS'components'
p17
(dp18
sS'lib'
p19
(dp20
sS'y'
S'421'
p21
sS'x'
S'263'
p22
sS'transformation'
p23
(S'-0.9999999999999996'
S'-1.665334536937734e-16'
S'1.665334536937734e-16'
S'-0.9999999999999996'
S'1086'
S'1024'
tp24
sS'name'
p25
S'u'
s."
LayerCount: 2
Fore
SplineSet
477 -24 m 256
 637 -24 745 39 812 154 c 257
 812 0 l 257
 982 0 l 257
 982 1023 l 257
 812 1023 l 257
 812 523 l 258
 812 296 740 97 511 97 c 256
 336 97 290 210 290 425 c 258
 290 1023 l 257
 120 1023 l 257
 120 448 l 258
 120 240 144 -24 477 -24 c 256
EndSplineSet
EndChar

StartChar: underscore
Encoding: 67 95 372
Width: 870
VWidth: 0
Flags: HW
LayerCount: 2
Fore
SplineSet
99 -118 m 257
 750 -118 l 257
 750 -1 l 257
 99 -1 l 257
 99 -118 l 257
EndSplineSet
EndChar

StartChar: uni0237
Encoding: 398 567 446
Width: 494
VWidth: 0
Flags: HW
PickledData: "(dp1
S'b'
(dp2
sS'anchors'
p3
(tsS'lib'
p4
(dp5
sS'unicodes'
p6
(tsS'width'
p7
S'482'
p8
sS'contours'
p9
(tsS'components'
p10
(tsS'com.typemytype.robofont.layerData'
p11
(dp12
sS'name'
p13
S'j'
s."
LayerCount: 2
Fore
SplineSet
138 -347 m 256
 322 -347 376 -252 376 -24 c 258
 376 1023 l 257
 206 1023 l 257
 206 -91 l 258
 206 -180 168 -207 111 -207 c 256
 65 -207 26 -191 -7 -177 c 257
 -41 -304 l 257
 3 -328 67 -347 138 -347 c 256
EndSplineSet
EndChar

StartChar: uni02C9
Encoding: 402 713 447
Width: 600
VWidth: 0
Flags: HW
LayerCount: 2
Fore
SplineSet
107 1253 m 257
 561 1253 l 257
 561 1373 l 257
 107 1373 l 257
 107 1253 l 257
EndSplineSet
EndChar

StartChar: uni0307
Encoding: 409 775 448
Width: 539
VWidth: 0
Flags: HW
LayerCount: 2
Fore
SplineSet
270 1268 m 256
 351 1268 392 1331 392 1393 c 256
 392 1455 351 1517 270 1517 c 256
 189 1517 148 1455 148 1393 c 256
 148 1331 189 1268 270 1268 c 256
EndSplineSet
EndChar

StartChar: afii61289
Encoding: 463 8467 467
Width: 891
VWidth: 0
Flags: HW
LayerCount: 2
Fore
SplineSet
458 1028 m 1
 584 1137 638 1246 638 1321 c 0
 638 1373 598 1407 556 1407 c 0
 508 1407 458 1363 458 1252 c 2
 458 1028 l 1
435 866 m 1
 435 280 l 2
 435 140 488 110 562 110 c 0
 597 110 650 123 698 143 c 1
 727 32 l 1
 662 1 592 -16 527 -16 c 0
 364 -16 265 63 265 298 c 2
 265 751 l 1
 118 634 l 1
 55 725 l 1
 265 895 l 1
 265 1235 l 2
 265 1458 385 1559 545 1559 c 0
 689 1559 789 1470 789 1338 c 0
 789 1227 721 1095 571 974 c 1
 435 866 l 1
EndSplineSet
EndChar

StartChar: Omega
Encoding: 465 8486 468
Width: 1758
VWidth: 0
Flags: HW
LayerCount: 2
Fore
SplineSet
114 0 m 257
 770 0 l 257
 770 114 l 257
 475 237 321 510 321 779 c 256
 321 1147 602 1329 879 1329 c 256
 1157 1329 1437 1147 1437 779 c 256
 1437 510 1283 237 988 114 c 257
 988 0 l 257
 1644 0 l 257
 1644 115 l 257
 1189 115 l 257
 1477 268 1617 530 1617 779 c 256
 1617 1255 1250 1491 879 1491 c 256
 508 1491 141 1255 141 779 c 256
 141 530 281 268 569 115 c 257
 114 115 l 257
 114 0 l 257
EndSplineSet
EndChar

StartChar: Delta
Encoding: 469 8710 469
Width: 1284
VWidth: 0
Flags: HW
LayerCount: 2
Fore
SplineSet
65 0 m 257
 1201 0 l 257
 1201 85 l 257
 723 1537 l 257
 559 1537 l 257
 65 85 l 257
 65 0 l 257
224 156 m 257
 592 1297 l 257
 624 1415 l 257
 750.591778563 990.591778563 887.376137679 576.376137679 1018 156 c 257
 224 156 l 257
EndSplineSet
EndChar

StartChar: uni2215
Encoding: 473 8725 470
Width: 861
VWidth: 0
Flags: HW
LayerCount: 2
Fore
SplineSet
52 0 m 257
 196 0 l 257
 809 1456 l 257
 661 1456 l 257
 52 0 l 257
EndSplineSet
EndChar

StartChar: uni2219
Encoding: 474 8729 471
Width: 600
VWidth: 0
Flags: HW
LayerCount: 2
Fore
SplineSet
225 543 m 257
 389 543 l 257
 389 758 l 257
 225 758 l 257
 225 543 l 257
EndSplineSet
EndChar

StartChar: v
Encoding: 90 118 480
Width: 955
VWidth: 0
Flags: HW
PickledData: "(dp1
S'com.typemytype.robofont.layerData'
p2
(dp3
s."
LayerCount: 2
Fore
SplineSet
396 0 m 257
 543 0 l 257
 934 1023 l 257
 770 1023 l 257
 478 213 l 257
 190 1023 l 257
 19 1023 l 257
 396 0 l 257
EndSplineSet
EndChar

StartChar: w
Encoding: 91 119 481
Width: 1492
VWidth: 0
Flags: HW
PickledData: "(dp1
S'com.typemytype.robofont.layerData'
p2
(dp3
s."
LayerCount: 2
Fore
SplineSet
344 0 m 257
 491 0 l 257
 744 738 l 257
 981 0 l 257
 1128 0 l 257
 1478 1023 l 257
 1311 1023 l 257
 1063 215 l 257
 799 1023 l 257
 703 1023 l 257
 426 215 l 257
 189 1023 l 257
 13 1023 l 257
 344 0 l 257
EndSplineSet
EndChar

StartChar: x
Encoding: 92 120 486
Width: 1131
VWidth: 0
Flags: HW
PickledData: "(dp1
S'b'
(dp2
sS'anchors'
p3
(tsS'lib'
p4
(dp5
sS'unicodes'
p6
(tsS'width'
p7
S'966'
p8
sS'contours'
p9
(tsS'components'
p10
(tsS'com.typemytype.robofont.layerData'
p11
(dp12
sS'name'
p13
S'x'
s."
LayerCount: 2
Fore
SplineSet
81 0 m 257
 262 0 l 257
 542 392 l 257
 829 0 l 257
 1016 0 l 257
 639 514 l 257
 1008 1023 l 257
 826 1023 l 257
 552 632 l 257
 266 1023 l 257
 79 1023 l 257
 453 512 l 257
 81 0 l 257
EndSplineSet
EndChar

StartChar: y
Encoding: 93 121 487
Width: 980
VWidth: 0
Flags: HW
PickledData: "(dp1
S'b'
(dp2
sS'anchors'
p3
(tsS'lib'
p4
(dp5
sS'unicodes'
p6
(tsS'width'
p7
S'971'
p8
sS'contours'
p9
(tsS'components'
p10
(tsS'com.typemytype.robofont.layerData'
p11
(dp12
sS'name'
p13
S'y'
s."
LayerCount: 2
Fore
SplineSet
67 -304 m 257
 108.610526835 -315.246088334 144.785580952 -319.138800107 184.907412644 -319.138800107 c 0
 393.079684906 -319.138800107 474.99808324 -188.838284963 581 85 c 258
 946 1023 l 257
 778 1023 l 257
 495 268 l 257
 211 1023 l 257
 36 1023 l 257
 409 92 l 257
 391 40 l 257
 335 -132 278 -173 163 -173 c 256
 140 -173 115 -170 86 -166 c 257
 67 -304 l 257
EndSplineSet
EndChar

StartChar: yen
Encoding: 104 165 491
Width: 1162
VWidth: 0
Flags: HW
PickledData: "(dp1
S'com.typemytype.robofont.layerData'
p2
(dp3
s."
LayerCount: 2
Fore
SplineSet
240 322 m 261
 926 322 l 261
 926 425 l 257
 240 425 l 257
 240 322 l 261
240 543 m 257
 926 543 l 257
 926 646 l 257
 240 646 l 257
 240 543 l 257
EndSplineSet
Refer: 125 89 N 1 0 0 1 0 0 2
EndChar

StartChar: z
Encoding: 94 122 493
Width: 879
VWidth: 0
Flags: HW
PickledData: "(dp1
S'com.typemytype.robofont.layerData'
p2
(dp3
s."
LayerCount: 2
Fore
SplineSet
64 0 m 257
 826 0 l 257
 826 123 l 257
 256 123 l 257
 828 908 l 257
 828 1023 l 257
 86 1023 l 257
 86 899 l 257
 627 899 l 257
 64 114 l 257
 64 0 l 257
EndSplineSet
EndChar

StartChar: zero
Encoding: 20 48 497
Width: 1246
VWidth: 0
Flags: HW
PickledData: "(dp1
S'com.typemytype.robofont.layerData'
p2
(dp3
s."
LayerCount: 2
Fore
SplineSet
623 117 m 256
 390 117 283 317 283 724 c 256
 283 1131 390 1348 623 1348 c 256
 856 1348 963 1131 963 724 c 256
 963 317 856 117 623 117 c 256
623 -24 m 256
 979 -24 1149 263 1149 724 c 256
 1149 1185 979 1489 623 1489 c 256
 267 1489 97 1185 97 724 c 256
 97 263 267 -24 623 -24 c 256
EndSplineSet
EndChar
